#N canvas 954 32 948 963 12;
#X obj 122 392 r coeur;
#X obj 122 436 * 1;
#X text 171 438 rate \, 0.5 would be half speed;
#X obj 122 475 % 1000;
#X floatatom 234 567 5 0 0 0 - - - 0;
#X text 284 567 <<< this is the actual voltage value;
#X obj 299 688 * 127;
#X obj 292 648 / 2;
#X obj 282 603 + 1;
#X text 186 474 this is hard coded \, table is 1000 values long;
#X obj 637 695 loadbang;
#X obj 644 828 soundfiler;
#X msg 616 780 write ../curve/sd_kick-1.wav sd_kick-1;
#X obj 612 400 loadbang;
#X obj 621 557 soundfiler;
#X obj 232 529 tabread \$1-\$2;
#X obj 303 725 s \$1-\$2_value;
#X obj 240 760 s \$1-\$2_voltage;
#X obj 132 789 s \$1-\$2_index;
#X obj 638 719 symbol \$1-\$2;
#X obj 642 463 symbol \$1-\$2;
#X msg 638 747 set write ../curve/\$1.wav \$1;
#X msg 620 524 read ../curve/sd_kick-1.wav sd_kick-1;
#X msg 642 491 set read ../curve/\$1.wav \$1;
#X obj 621 598 r \$1_save;
#X obj 611 427 t b b;
#X obj 191 392 r \$1-\$2_rate_value;
#X obj 575 639 t b;
#N canvas 954 552 948 443 (subpatch) 0;
#X array \$1-\$2 1000 float 4;
#X coords 0 1 999 -1 400 50 2 0 0;
#X restore 125 120 graph;
#X obj 110 122 vsl 10 45 0 127 0 0 empty \$1-\$2_value empty 0 -9 0
10 #9c00fc #e0c4fc #000000 0 1;
#X obj 128 175 hsl 395 10 0 1000 0 0 empty \$1-\$2_index empty -2 -8
0 10 #e0c4fc #9c00fc #000000 0 1;
#X floatatom 535 150 7 0 0 1 rate \$1-\$2_rate_set \$1-\$2_rate 0;
#X obj 510 30 loadbang;
#X symbolatom 535 120 10 0 0 0 - - - 0;
#X obj 510 64 symbol \$1-\$2;
#X obj 658 158 retain_float \$1 \$2_rate;
#X connect 0 0 1 0;
#X connect 1 0 3 0;
#X connect 3 0 15 0;
#X connect 3 0 18 0;
#X connect 4 0 8 0;
#X connect 4 0 17 0;
#X connect 6 0 16 0;
#X connect 7 0 6 0;
#X connect 8 0 7 0;
#X connect 10 0 19 0;
#X connect 12 0 11 0;
#X connect 13 0 25 0;
#X connect 15 0 4 0;
#X connect 19 0 21 0;
#X connect 20 0 23 0;
#X connect 21 0 12 0;
#X connect 22 0 14 0;
#X connect 23 0 22 0;
#X connect 24 0 27 0;
#X connect 25 0 22 0;
#X connect 25 1 20 0;
#X connect 26 0 1 1;
#X connect 27 0 12 0;
#X connect 32 0 34 0;
#X connect 34 0 33 0;
#X coords 0 -1 1 1 540 100 2 100 100;
