#N canvas 964 109 948 963 12;
#X obj 38 48 r coeur;
#X obj 38 92 * 1;
#X text 87 94 rate \, 0.5 would be half speed;
#X obj 38 131 % 1000;
#X floatatom 150 223 5 0 0 0 - - -;
#X text 200 223 <<< this is the actual voltage value;
#X obj 215 344 * 127;
#X obj 208 304 / 2;
#X obj 198 259 + 1;
#X text 102 130 this is hard coded \, table is 1000 values long;
#X obj 522 74 bng 15 250 50 0 empty empty empty 17 7 0 10 -262144 -1
-1;
#X obj 539 126 loadbang;
#X obj 519 244 soundfiler;
#X msg 518 211 write ../curve/sd_kick-1.wav sd_kick-1;
#X obj 501 347 loadbang;
#X obj 510 504 soundfiler;
#X obj 107 48 r \$1-\$2_rate;
#X obj 148 185 tabread \$1-\$2;
#X obj 219 381 s \$1-\$2_value;
#X obj 156 416 s \$1-\$2_voltage;
#X obj 48 445 s \$1-\$2_index;
#X obj 540 150 symbol \$1-\$2;
#X obj 531 410 symbol \$1-\$2;
#X msg 540 178 set write ../curve/\$1.wav \$1;
#X msg 509 471 read ../curve/sd_kick-1.wav sd_kick-1;
#X msg 531 438 set read ../curve/\$1.wav \$1;
#X obj 523 29 r \$1_save;
#X obj 500 374 t b b;
#X floatatom 139 695 5 0 0 0 - - -;
#X obj 98 955 text set \$1-data;
#X obj 141 737 pack f s;
#X msg 278 772 list \$2;
#X obj 248 820 text search \$1-data;
#X msg 128 815 list \$2 \$1;
#X obj 162 771 t l l;
#X obj 261 637 loadbang;
#X obj 336 637 bng 15 250 50 0 empty empty empty 17 7 0 10 -262144
-1 -1;
#X obj 248 859 moses 0;
#X msg 214 896 9999;
#X obj 233 954 change;
#X obj 137 659 r \$1-\$2_rate;
#X obj 238 686 symbol \$1-\$2_rate;
#X obj 49 855 print;
#X obj 111 880 loadbang;
#X floatatom 408 924 5 0 0 0 - - -;
#X obj 393 872 bng 15 250 50 0 empty empty empty 17 7 0 10 -262144
-1 -1;
#X obj 433 871 bng 15 250 50 0 empty empty empty 17 7 0 10 -262144
-1 -1;
#X msg 129 921 1;
#X connect 0 0 1 0;
#X connect 1 0 3 0;
#X connect 3 0 17 0;
#X connect 3 0 20 0;
#X connect 4 0 8 0;
#X connect 4 0 19 0;
#X connect 6 0 18 0;
#X connect 7 0 6 0;
#X connect 8 0 7 0;
#X connect 10 0 13 0;
#X connect 11 0 21 0;
#X connect 13 0 12 0;
#X connect 14 0 27 0;
#X connect 16 0 1 1;
#X connect 17 0 4 0;
#X connect 21 0 23 0;
#X connect 22 0 25 0;
#X connect 23 0 13 0;
#X connect 24 0 15 0;
#X connect 25 0 24 0;
#X connect 26 0 10 0;
#X connect 27 0 24 0;
#X connect 27 1 22 0;
#X connect 28 0 30 0;
#X connect 30 0 34 0;
#X connect 31 0 32 0;
#X connect 32 0 37 0;
#X connect 33 0 29 0;
#X connect 33 0 42 0;
#X connect 34 0 33 0;
#X connect 34 1 31 0;
#X connect 35 0 41 0;
#X connect 36 0 41 0;
#X connect 37 0 38 0;
#X connect 37 0 45 0;
#X connect 37 1 39 0;
#X connect 37 1 44 0;
#X connect 37 1 46 0;
#X connect 38 0 39 0;
#X connect 38 0 44 0;
#X connect 39 0 29 1;
#X connect 40 0 28 0;
#X connect 41 0 30 1;
#X connect 43 0 47 0;
#X connect 47 0 29 1;
#X connect 47 0 44 0;
