#N canvas 0 101 1920 979 12;
#X obj 38 48 r coeur;
#X obj 38 92 * 1;
#X text 87 94 rate \, 0.5 would be half speed;
#X obj 38 131 % 1000;
#X floatatom 150 223 5 0 0 0 - - -;
#X text 200 223 <<< this is the actual voltage value;
#X obj 215 344 * 127;
#X obj 208 304 / 2;
#X obj 198 259 + 1;
#X text 102 130 this is hard coded \, table is 1000 values long;
#X obj 63 739 bng 15 250 50 0 empty empty empty 17 7 0 10 -262144 -1
-1;
#X obj 80 791 loadbang;
#X obj 87 924 soundfiler;
#X msg 59 876 write ../curve/sd_kick-1.wav sd_kick-1;
#X obj 55 496 loadbang;
#X obj 64 653 soundfiler;
#X obj 148 185 tabread \$1-\$2;
#X obj 219 381 s \$1-\$2_value;
#X obj 156 416 s \$1-\$2_voltage;
#X obj 48 445 s \$1-\$2_index;
#X obj 81 815 symbol \$1-\$2;
#X obj 85 559 symbol \$1-\$2;
#X msg 81 843 set write ../curve/\$1.wav \$1;
#X msg 63 620 read ../curve/sd_kick-1.wav sd_kick-1;
#X msg 85 587 set read ../curve/\$1.wav \$1;
#X obj 64 694 r \$1_save;
#X obj 54 523 t b b;
#X floatatom 320 79 5 0 0 0 - - -;
#X obj 550 358 pack f s;
#X msg 550 388 list \$1 \$2;
#X obj 600 628 route -1;
#X obj 600 598 change;
#X obj 610 538 loadbang;
#X msg 610 568 9999;
#X msg 600 688 9999;
#X msg 590 448 list \$2 \$1;
#X obj 550 298 t f b;
#X msg 600 478 symbol \$2;
#X msg 580 748 symbol \$2;
#X obj 550 418 t b l l l;
#X obj 551 51 loadbang;
#X obj 551 81 del 100;
#X obj 600 658 t b;
#X obj 650 688 t f;
#X msg 580 838 \$2;
#X msg 601 197 set \$2;
#X obj 570 898 t b;
#X obj 550 268 r \$1-\$2_rate;
#X obj 560 328 symbol \$1-\$2_rate;
#X obj 551 111 symbol \$1-\$2_rate;
#X obj 580 808 text get \$1-data;
#X obj 580 778 text search \$1-data;
#X obj 590 718 text set \$1-data;
#X obj 600 508 text search \$1-data;
#X obj 551 141 text search \$1-data;
#X obj 551 171 text get \$1-data;
#X obj 570 928 s \$1-data_save;
#X obj 107 48 r \$1-\$2_rate_internal;
#X obj 580 868 s \$1-\$2_rate_internal;
#X obj 551 231 s \$1-\$2_rate_set;
#X obj 691 544 loadbang;
#X obj 703 594 del 100;
#X obj 701 666 symbol \$1-\$2_rate;
#X connect 0 0 1 0;
#X connect 1 0 3 0;
#X connect 3 0 16 0;
#X connect 3 0 19 0;
#X connect 4 0 8 0;
#X connect 4 0 18 0;
#X connect 6 0 17 0;
#X connect 7 0 6 0;
#X connect 8 0 7 0;
#X connect 10 0 13 0;
#X connect 11 0 20 0;
#X connect 13 0 12 0;
#X connect 14 0 26 0;
#X connect 16 0 4 0;
#X connect 20 0 22 0;
#X connect 21 0 24 0;
#X connect 22 0 13 0;
#X connect 23 0 15 0;
#X connect 24 0 23 0;
#X connect 25 0 10 0;
#X connect 26 0 23 0;
#X connect 26 1 21 0;
#X connect 28 0 29 0;
#X connect 29 0 39 0;
#X connect 30 0 42 0;
#X connect 30 1 43 0;
#X connect 31 0 30 0;
#X connect 32 0 33 0;
#X connect 33 0 31 0;
#X connect 34 0 52 1;
#X connect 35 0 52 0;
#X connect 36 0 28 0;
#X connect 36 1 48 0;
#X connect 37 0 53 0;
#X connect 38 0 51 0;
#X connect 39 0 46 0;
#X connect 39 1 38 0;
#X connect 39 2 35 0;
#X connect 39 3 37 0;
#X connect 40 0 41 0;
#X connect 41 0 49 0;
#X connect 42 0 34 0;
#X connect 43 0 52 1;
#X connect 44 0 58 0;
#X connect 45 0 59 0;
#X connect 46 0 56 0;
#X connect 47 0 36 0;
#X connect 48 0 28 1;
#X connect 49 0 54 0;
#X connect 50 0 44 0;
#X connect 51 0 50 0;
#X connect 53 0 31 0;
#X connect 54 0 55 0;
#X connect 55 0 45 0;
#X connect 57 0 1 1;
#X connect 57 0 27 0;
#X connect 60 0 61 0;
#X connect 61 0 62 0;
#X connect 62 0 51 0;
