#N canvas 964 109 948 963 12;
#X obj 38 48 r coeur;
#X obj 38 92 * 1;
#X text 87 94 rate \, 0.5 would be half speed;
#X obj 38 131 % 1000;
#X floatatom 150 223 5 0 0 0 - - -;
#X text 200 223 <<< this is the actual voltage value;
#X obj 215 344 * 127;
#X obj 208 304 / 2;
#X obj 198 259 + 1;
#X text 102 130 this is hard coded \, table is 1000 values long;
#X obj 553 351 loadbang;
#X obj 560 484 soundfiler;
#X msg 532 436 write ../curve/sd_kick-1.wav sd_kick-1;
#X obj 528 56 loadbang;
#X obj 537 213 soundfiler;
#X obj 148 185 tabread \$1-\$2;
#X obj 219 381 s \$1-\$2_value;
#X obj 156 416 s \$1-\$2_voltage;
#X obj 48 445 s \$1-\$2_index;
#X obj 554 375 symbol \$1-\$2;
#X obj 558 119 symbol \$1-\$2;
#X msg 554 403 set write ../curve/\$1.wav \$1;
#X msg 536 180 read ../curve/sd_kick-1.wav sd_kick-1;
#X msg 558 147 set read ../curve/\$1.wav \$1;
#X obj 537 254 r \$1_save;
#X obj 527 83 t b b;
#X floatatom 320 79 5 0 0 0 - - -;
#X obj 107 48 r \$1-\$2_rate_value;
#X obj 491 295 t b;
#X connect 0 0 1 0;
#X connect 1 0 3 0;
#X connect 3 0 15 0;
#X connect 3 0 18 0;
#X connect 4 0 8 0;
#X connect 4 0 17 0;
#X connect 6 0 16 0;
#X connect 7 0 6 0;
#X connect 8 0 7 0;
#X connect 10 0 19 0;
#X connect 12 0 11 0;
#X connect 13 0 25 0;
#X connect 15 0 4 0;
#X connect 19 0 21 0;
#X connect 20 0 23 0;
#X connect 21 0 12 0;
#X connect 22 0 14 0;
#X connect 23 0 22 0;
#X connect 24 0 28 0;
#X connect 25 0 22 0;
#X connect 25 1 20 0;
#X connect 27 0 1 1;
#X connect 27 0 26 0;
#X connect 28 0 12 0;
