#N canvas 954 552 948 443 12;
#X msg 117 192 0;
#X obj 67 473 tabread~ \$1-sample;
#X obj 313 383 vline~;
#X obj 104 551 *~;
#X obj 196 512 *~;
#X msg 205 209 1 \$2 \, 0 \$3 \$2;
#X msg 174 331 \$1;
#X obj 99 391 +~;
#X obj 77 330 *~ 441000;
#X obj 176 157 t b l l;
#X obj 71 223 phasor~ 0.1;
#X obj 146 59 inlet;
#X obj 82 591 outlet~;
#X connect 0 0 10 1;
#X connect 1 0 3 0;
#X connect 2 0 4 0;
#X connect 2 0 4 1;
#X connect 3 0 12 0;
#X connect 4 0 3 1;
#X connect 5 0 2 0;
#X connect 6 0 7 1;
#X connect 7 0 1 0;
#X connect 8 0 7 0;
#X connect 9 0 0 0;
#X connect 9 1 5 0;
#X connect 9 2 6 0;
#X connect 10 0 8 0;
#X connect 11 0 9 0;
