#N canvas 8 109 1904 963 12;
#N canvas 0 50 450 250 (subpatch) 0;
#X array \$1-1 1000 float 0;
#X coords 0 1 999 -1 700 150 1 0 0;
#X restore 66 99 graph;
#X obj 46 101 vsl 15 145 0 127 0 0 empty \$1-1_value empty 0 -9 0 10
-159808 -232576 -1 12024 1;
#X obj 69 254 hsl 695 15 0 1000 0 0 empty \$1-1_index empty -2 -8 0
10 -232576 -159808 -1 3123 1;
#X floatatom 635 69 7 0 0 0 - #1-1_rate_save #1-1_rate;
#X obj 692 69 curve \$1 1;
#X obj 46 39 bng 15 250 50 0 \$1_save empty empty 17 7 0 10 -262144
-159808 -232576;
#N canvas 0 50 450 250 (subpatch) 0;
#X array \$1-2 1000 float 0;
#X coords 0 1 999 -1 700 150 1 0 0;
#X restore 66 309 graph;
#X obj 46 311 vsl 15 145 0 127 0 0 empty \$1-2_value empty 0 -9 0 10
-159808 -232576 -1 7008 1;
#X obj 69 464 hsl 695 15 0 1000 0 0 empty \$1-2_index empty -2 -8 0
10 -232576 -159808 -1 37337 1;
#X floatatom 635 279 7 0 0 0 - #1-2_rate_save #1-2_rate;
#X obj 692 279 curve \$1 2;
#N canvas 0 50 450 250 (subpatch) 0;
#X array \$1-3 1000 float 0;
#X coords 0 1 999 -1 700 150 1 0 0;
#X restore 66 519 graph;
#X obj 46 521 vsl 15 145 0 127 0 0 empty \$1-3_value empty 0 -9 0 10
-159808 -232576 -1 7200 1;
#X obj 69 674 hsl 695 15 0 1000 0 0 empty \$1-3_index empty -2 -8 0
10 -232576 -159808 -1 5274 1;
#X floatatom 635 489 7 0 0 0 - #1-3_rate_save #1-3_rate;
#N canvas 0 50 450 250 (subpatch) 0;
#X array \$1-4 1000 float 0;
#X coords 0 1 999 -1 700 150 1 0 0;
#X restore 66 729 graph;
#X obj 46 731 vsl 15 145 0 127 0 0 empty \$1-4_value empty 0 -9 0 10
-159808 -232576 -1 7200 1;
#X obj 69 884 hsl 695 15 0 1000 0 0 empty \$1-4_index empty -2 -8 0
10 -232576 -159808 -1 10549 1;
#X floatatom 635 699 7 0 0 0 - #1-4_rate_save #1-4_rate;
#X obj 692 489 curve \$1 3;
#X obj 692 699 curve \$1 4;
#X text 68 36 save curves;
#X obj 968 269 text define \$1-data;
#X text 958 227 my key value preset system;
#X text 965 313 bounce to disk \, and load on start - remember to send
to graphical objects;
