#N canvas -2 32 1904 963 12;
#X obj 32 107 curve \$1 1;
#X obj 365 720 bng 20 250 50 0 \$1_save empty save\\\ curves 27 9 0
13 #fcfcfc #9c00fc #9c00ff;
#N canvas 954 32 948 963 preset 0;
#X msg 100 200 write ../text/sd_kick.txt;
#X msg 110 260 read ../text/sd_kick.txt;
#X obj 100 290 text define \$1-data;
#X obj 112 152 r \$1-data_save;
#X obj 110 230 r \$1-data_load;
#X obj 291 50 loadbang;
#X obj 291 80 t b b;
#X obj 293 192 s \$1-data_load;
#X obj 388 249 symbol \$1;
#X msg 327 298 set write ../text/\$1.txt;
#X msg 331 344 set read ../text/\$1.txt;
#X obj 446 142 bng 15 250 50 0 empty empty empty 17 7 0 10 #fcfcfc
#000000 #000000;
#X connect 0 0 2 0;
#X connect 1 0 2 0;
#X connect 3 0 0 0;
#X connect 4 0 1 0;
#X connect 5 0 6 0;
#X connect 6 0 7 0;
#X connect 6 1 8 0;
#X connect 8 0 9 0;
#X connect 8 0 10 0;
#X connect 9 0 0 0;
#X connect 10 0 1 0;
#X connect 11 0 8 0;
#X restore 1512 150 pd preset;
#X symbolatom 393 750 20 0 0 0 - \$1_sample_name - 0;
#N canvas 954 32 948 963 sampler 0;
#X obj 58 296 openpanel;
#N canvas 954 552 948 443 extract_filename 0;
#X obj 42 31 inlet;
#X obj 43 59 list fromsymbol;
#X obj 69 841 list tosymbol;
#X obj 172 167 list length;
#X obj 398 223 float;
#X obj 403 268 + 1;
#X floatatom 171 277 5 0 0 0 - - - 0;
#X obj 214 398 < 27;
#X obj 302 426 tgl 15 0 empty empty empty 17 7 0 10 #fcfcfc #000000
#000000 0 1;
#X obj 311 108 sel 1;
#X floatatom 98 430 5 0 0 0 - - - 0;
#X obj 58 567 list split;
#X obj 62 526 list;
#X obj 173 203 t b f b;
#X msg 239 238 set 0;
#X obj 173 566 pack;
#X obj 91 470 t b f f;
#X msg 141 533 \$1;
#X obj 159 624 route 47;
#X obj 387 139 del 5;
#X obj 235 353 - 1;
#X obj 148 372 t b f f;
#X obj 259 475 float;
#X obj 277 547 sel 0;
#X obj 260 708 print gold;
#X obj 259 668 float;
#X obj 41 98 t l l l;
#X obj 133 733 list;
#X obj 139 793 list split;
#X obj 187 703 t b f;
#X obj 238 767 + 1;
#X obj 64 883 outlet;
#X connect 0 0 1 0;
#X connect 1 0 26 0;
#X connect 2 0 31 0;
#X connect 3 0 13 0;
#X connect 4 0 5 0;
#X connect 5 0 6 0;
#X connect 6 0 4 1;
#X connect 6 0 21 0;
#X connect 7 0 8 0;
#X connect 7 0 22 1;
#X connect 8 0 9 0;
#X connect 9 0 19 0;
#X connect 10 0 16 0;
#X connect 11 1 17 0;
#X connect 12 0 11 0;
#X connect 13 0 6 0;
#X connect 13 1 20 0;
#X connect 13 2 14 0;
#X connect 14 0 6 0;
#X connect 15 0 18 0;
#X connect 16 0 12 0;
#X connect 16 1 11 1;
#X connect 16 2 15 1;
#X connect 17 0 15 0;
#X connect 18 0 25 1;
#X connect 19 0 4 0;
#X connect 20 0 7 1;
#X connect 21 0 22 0;
#X connect 21 1 10 0;
#X connect 21 2 7 0;
#X connect 22 0 23 0;
#X connect 23 0 25 0;
#X connect 25 0 24 0;
#X connect 25 0 29 0;
#X connect 26 0 3 0;
#X connect 26 1 12 1;
#X connect 26 2 27 1;
#X connect 27 0 28 0;
#X connect 28 1 2 0;
#X connect 29 0 27 0;
#X connect 29 1 30 0;
#X connect 30 0 28 1;
#X restore 58 327 pd extract_filename;
#X symbolatom 59 362 20 0 0 0 - - - 0;
#X obj 132 673 soundfiler;
#X obj 57 55 table \$1-sample 1000;
#X msg 131 637 read -resize ../audio/karelle.wav sd_kick-sample;
#X obj 186 451 symbol \$1-sample;
#X obj 159 495 pack s s;
#X obj 184 423 loadbang;
#X msg 155 599 set read -resize ../audio/\$1 \$2;
#X obj 102 544 t b l;
#X obj 57 400 retain_symbol \$1 sample;
#X obj 133 711 s \$1-sample-length;
#X obj 62 241 r \$1_sample_open;
#X obj 60 801 s \$1_sample_name;
#X connect 0 0 1 0;
#X connect 1 0 2 0;
#X connect 2 0 11 0;
#X connect 3 0 12 0;
#X connect 5 0 3 0;
#X connect 6 0 7 1;
#X connect 7 0 10 0;
#X connect 8 0 6 0;
#X connect 9 0 5 0;
#X connect 10 0 5 0;
#X connect 10 1 9 0;
#X connect 11 0 7 0;
#X connect 11 0 14 0;
#X connect 13 0 0 0;
#X restore 1509 124 pd sampler;
#X obj 1534 469 r \$1-env;
#X obj 1474 515 f;
#X obj 1586 516 + 1;
#X obj 1477 543 % 4;
#X obj 1475 487 t b l;
#X obj 1484 571 list append;
#X obj 1487 604 route 0 1 2 3;
#X obj 1493 897 dac~;
#N canvas 964 109 948 963 droplet 0;
#X msg 117 192 0;
#X obj 67 473 tabread~ \$1-sample;
#X obj 313 383 vline~;
#X obj 104 551 *~;
#X obj 196 512 *~;
#X msg 205 209 1 \$2 \, 0 \$3 \$2;
#X msg 174 331 \$1;
#X obj 99 391 +~;
#X obj 77 330 *~ 441000;
#X obj 176 157 t b l l;
#X obj 71 223 phasor~ 0.1;
#X obj 146 59 inlet;
#X obj 82 591 outlet~;
#X connect 0 0 10 1;
#X connect 1 0 3 0;
#X connect 2 0 4 0;
#X connect 2 0 4 1;
#X connect 3 0 12 0;
#X connect 4 0 3 1;
#X connect 5 0 2 0;
#X connect 6 0 7 1;
#X connect 7 0 1 0;
#X connect 8 0 7 0;
#X connect 9 0 0 0;
#X connect 9 1 5 0;
#X connect 9 2 6 0;
#X connect 10 0 8 0;
#X connect 11 0 9 0;
#X restore 1479 651 pd droplet;
#N canvas 964 109 948 963 droplet 0;
#X msg 117 192 0;
#X obj 72 364 tabread~ \$1-sample;
#X obj 190 313 vline~;
#X obj 109 442 *~;
#X obj 201 403 *~;
#X msg 205 209 1 \$2 \, 0 \$3 \$2;
#X msg 173 255 \$1;
#X obj 98 315 +~;
#X obj 76 254 *~ 441000;
#X obj 176 157 t b l l;
#X obj 71 223 phasor~ 0.1;
#X obj 146 59 inlet;
#X obj 87 482 outlet~;
#X connect 0 0 10 1;
#X connect 1 0 3 0;
#X connect 2 0 4 0;
#X connect 2 0 4 1;
#X connect 3 0 12 0;
#X connect 4 0 3 1;
#X connect 5 0 2 0;
#X connect 6 0 7 1;
#X connect 7 0 1 0;
#X connect 8 0 7 0;
#X connect 9 0 0 0;
#X connect 9 1 5 0;
#X connect 9 2 6 0;
#X connect 10 0 8 0;
#X connect 11 0 9 0;
#X restore 1498 687 pd droplet;
#N canvas 964 109 948 963 droplet 0;
#X msg 117 192 0;
#X obj 72 364 tabread~ \$1-sample;
#X obj 190 313 vline~;
#X obj 109 442 *~;
#X obj 201 403 *~;
#X msg 205 209 1 \$2 \, 0 \$3 \$2;
#X msg 173 255 \$1;
#X obj 98 315 +~;
#X obj 76 254 *~ 441000;
#X obj 176 157 t b l l;
#X obj 71 223 phasor~ 0.1;
#X obj 146 59 inlet;
#X obj 87 482 outlet~;
#X connect 0 0 10 1;
#X connect 1 0 3 0;
#X connect 2 0 4 0;
#X connect 2 0 4 1;
#X connect 3 0 12 0;
#X connect 4 0 3 1;
#X connect 5 0 2 0;
#X connect 6 0 7 1;
#X connect 7 0 1 0;
#X connect 8 0 7 0;
#X connect 9 0 0 0;
#X connect 9 1 5 0;
#X connect 9 2 6 0;
#X connect 10 0 8 0;
#X connect 11 0 9 0;
#X restore 1522 727 pd droplet;
#N canvas 964 109 948 963 droplet 0;
#X msg 117 192 0;
#X obj 72 364 tabread~ \$1-sample;
#X obj 190 313 vline~;
#X obj 109 442 *~;
#X obj 201 403 *~;
#X msg 205 209 1 \$2 \, 0 \$3 \$2;
#X msg 173 255 \$1;
#X obj 98 315 +~;
#X obj 76 254 *~ 441000;
#X obj 176 157 t b l l;
#X obj 71 223 phasor~ 0.1;
#X obj 146 59 inlet;
#X obj 87 482 outlet~;
#X connect 0 0 10 1;
#X connect 1 0 3 0;
#X connect 2 0 4 0;
#X connect 2 0 4 1;
#X connect 3 0 12 0;
#X connect 4 0 3 1;
#X connect 5 0 2 0;
#X connect 6 0 7 1;
#X connect 7 0 1 0;
#X connect 8 0 7 0;
#X connect 9 0 0 0;
#X connect 9 1 5 0;
#X connect 9 2 6 0;
#X connect 10 0 8 0;
#X connect 11 0 9 0;
#X restore 1554 746 pd droplet;
#X obj 1488 857 *~ 1;
#X text 1621 686 droplet should be an abstraction;
#X text 1560 543 things to add pitch \, amplitude and eq;
#X text 1668 852 add ability to kill whole track;
#X obj 612 27 router \$1 trigger;
#X obj 1022 27 router \$1 start;
#X obj 612 277 router \$1 attack;
#X obj 1022 277 router \$1 decay;
#X obj 366 750 bng 20 250 50 0 \$1_sample_open empty empty 27 9 0 13
#fcfcfc #9c00fc #9c00ff;
#X obj 32 217 curve \$1 2;
#N canvas 954 32 948 963 env-gen 0;
#X obj 95 144 r \$1-trigger_voltage;
#X obj 355 129 r \$1-start_voltage;
#X obj 289 481 r \$1-attack_voltage;
#X obj 116 331 > 0;
#X obj 148 379 change;
#X obj 119 466 sel 1;
#X obj 394 354 r \$1-sample-length;
#X obj 229 450 *;
#N canvas 954 552 948 443 pos 0;
#X obj 286 69 inlet;
#X obj 287 112 + 1;
#X obj 288 155 * 0.5;
#X obj 288 195 clip 0 1;
#X obj 285 231 outlet;
#X connect 0 0 1 0;
#X connect 1 0 2 0;
#X connect 2 0 3 0;
#X connect 3 0 4 0;
#X restore 341 170 pd pos;
#X obj 166 553 f;
#X obj 139 505 t b;
#X floatatom 162 611 5 0 0 0 - - - 0;
#N canvas 954 552 948 443 pos 0;
#X obj 286 69 inlet;
#X obj 287 112 + 1;
#X obj 288 155 * 0.5;
#X obj 288 195 clip 0 1;
#X obj 285 231 outlet;
#X connect 0 0 1 0;
#X connect 1 0 2 0;
#X connect 2 0 3 0;
#X connect 3 0 4 0;
#X restore 294 520 pd pos;
#X obj 297 557 *;
#X obj 303 582 * 4000;
#X floatatom 300 627 5 0 0 0 - - - 0;
#X obj 234 714 pack f f f;
#N canvas 954 552 948 443 pos 0;
#X obj 286 69 inlet;
#X obj 287 112 + 1;
#X obj 288 155 * 0.5;
#X obj 288 195 clip 0 1;
#X obj 285 231 outlet;
#X connect 0 0 1 0;
#X connect 1 0 2 0;
#X connect 2 0 3 0;
#X connect 3 0 4 0;
#X restore 383 558 pd pos;
#X obj 386 595 *;
#X obj 392 620 * 4000;
#X floatatom 389 665 5 0 0 0 - - - 0;
#X obj 378 519 r \$1-decay_voltage;
#X obj 233 784 s \$1_note;
#X connect 0 0 3 0;
#X connect 1 0 8 0;
#X connect 2 0 12 0;
#X connect 3 0 4 0;
#X connect 4 0 5 0;
#X connect 5 0 10 0;
#X connect 6 0 7 1;
#X connect 7 0 9 1;
#X connect 8 0 7 0;
#X connect 9 0 11 0;
#X connect 10 0 9 0;
#X connect 11 0 16 0;
#X connect 12 0 13 0;
#X connect 12 0 13 1;
#X connect 13 0 14 0;
#X connect 14 0 15 0;
#X connect 15 0 16 1;
#X connect 16 0 22 0;
#X connect 17 0 18 0;
#X connect 17 0 18 1;
#X connect 18 0 19 0;
#X connect 19 0 20 0;
#X connect 20 0 16 2;
#X connect 21 0 17 0;
#X restore 282 546 pd env-gen;
#X text 260 796 comment;
#X floatatom 147 738 5 0 0 0 - - - 0;
#X obj 134 775 s scene;
#X msg 222 733 1;
#X obj 627 662 r \$1_note;
#X obj 630 708 print \$1;
#X connect 5 0 9 0;
#X connect 6 0 7 0;
#X connect 6 0 8 0;
#X connect 7 0 6 1;
#X connect 8 0 10 0;
#X connect 9 0 6 0;
#X connect 9 1 10 1;
#X connect 10 0 11 0;
#X connect 11 0 13 0;
#X connect 11 1 14 0;
#X connect 11 2 15 0;
#X connect 11 3 16 0;
#X connect 13 0 17 0;
#X connect 14 0 17 0;
#X connect 15 0 17 0;
#X connect 16 0 17 0;
#X connect 17 0 12 0;
#X connect 17 0 12 1;
#X connect 29 0 30 0;
#X connect 31 0 30 0;
#X connect 32 0 33 0;
