#N canvas 8 109 948 963 12;
#N canvas 0 50 450 250 (subpatch) 0;
#X array \$1-1 1000 float 0;
#X coords 0 1 999 -1 700 150 1 0 0;
#X restore 66 99 graph;
#X obj 46 101 vsl 15 145 0 127 0 0 empty \$1-1_value empty 0 -9 0 10
-159808 -232576 -1 2772 1;
#X obj 69 254 hsl 695 15 0 1000 0 0 empty \$1-1_index empty -2 -8 0
10 -232576 -159808 -1 14158 1;
#X floatatom 635 69 7 0 0 0 - #1-1_rate_set #1-1_rate;
#X obj 692 69 curve \$1 1;
#X obj 46 39 bng 20 250 50 0 \$1_save empty empty 17 7 0 10 -262144
-159808 -232576;
#N canvas 0 50 450 250 (subpatch) 0;
#X array \$1-2 1000 float 0;
#X coords 0 1 999 -1 700 150 1 0 0;
#X restore 66 309 graph;
#X obj 46 311 vsl 15 145 0 127 0 0 empty \$1-2_value empty 0 -9 0 10
-159808 -232576 -1 7200 1;
#X obj 69 464 hsl 695 15 0 1000 0 0 empty \$1-2_index empty -2 -8 0
10 -232576 -159808 -1 14158 1;
#X floatatom 635 279 7 0 0 0 - #1-2_rate_set #1-2_rate;
#X obj 692 279 curve \$1 2;
#N canvas 0 50 450 250 (subpatch) 0;
#X array \$1-3 1000 float 0;
#X coords 0 1 999 -1 700 150 1 0 0;
#X restore 66 519 graph;
#X obj 46 521 vsl 15 145 0 127 0 0 empty \$1-3_value empty 0 -9 0 10
-159808 -232576 -1 5664 1;
#X obj 69 674 hsl 695 15 0 1000 0 0 empty \$1-3_index empty -2 -8 0
10 -232576 -159808 -1 61141 1;
#X floatatom 635 489 7 0 0 0 - #1-3_rate_set #1-3_rate;
#N canvas 0 50 450 250 (subpatch) 0;
#X array \$1-4 1000 float 0;
#X coords 0 1 999 -1 700 150 1 0 0;
#X restore 66 729 graph;
#X obj 46 731 vsl 15 145 0 127 0 0 empty \$1-4_value empty 0 -9 0 10
-159808 -232576 -1 7200 1;
#X obj 69 884 hsl 695 15 0 1000 0 0 empty \$1-4_index empty -2 -8 0
10 -232576 -159808 -1 41779 1;
#X floatatom 635 699 7 0 0 0 - #1-4_rate_set #1-4_rate;
#X obj 692 489 curve \$1 3;
#X obj 692 699 curve \$1 4;
#N canvas 964 109 948 963 preset 1;
#X msg 160 240 write ../text/sd_kick.txt;
#X msg 170 300 read ../text/sd_kick.txt;
#X obj 160 330 text define \$1-data;
#X obj 172 192 r \$1-data_save;
#X obj 170 270 r \$1-data_load;
#X obj 351 90 loadbang;
#X obj 351 120 t b b;
#X obj 353 232 s \$1-data_load;
#X obj 448 289 symbol \$1;
#X msg 387 338 set write ../text/\$1.txt;
#X msg 391 384 set read ../text/\$1.txt;
#X obj 506 182 bng 15 250 50 0 empty empty empty 17 7 0 10 -262144
-1 -1;
#X obj 24 411 retain_float \$1 1_start;
#X obj 24 441 retain_float \$1 1_attack;
#X obj 24 471 retain_float \$1 1_decay;
#X obj 24 381 retain_float \$1 1_trigger;
#X obj 24 511 retain_float \$1 2_trigger;
#X obj 24 541 retain_float \$1 2_start;
#X obj 24 571 retain_float \$1 2_attack;
#X obj 24 601 retain_float \$1 2_decay;
#X obj 24 641 retain_float \$1 3_trigger;
#X obj 24 671 retain_float \$1 3_start;
#X obj 24 701 retain_float \$1 3_attack;
#X obj 24 731 retain_float \$1 3_decay;
#X obj 24 771 retain_float \$1 4_trigger;
#X obj 24 801 retain_float \$1 4_start;
#X obj 24 831 retain_float \$1 4_attack;
#X obj 24 861 retain_float \$1 4_decay;
#X obj 26 27 retain_float \$1 1_rate;
#X obj 26 57 retain_float \$1 2_rate;
#X obj 26 87 retain_float \$1 3_rate;
#X obj 26 117 retain_float \$1 4_rate;
#X connect 0 0 2 0;
#X connect 1 0 2 0;
#X connect 3 0 0 0;
#X connect 4 0 1 0;
#X connect 5 0 6 0;
#X connect 6 0 7 0;
#X connect 6 1 8 0;
#X connect 8 0 9 0;
#X connect 8 0 10 0;
#X connect 9 0 0 0;
#X connect 10 0 1 0;
#X connect 11 0 8 0;
#X restore 76 39 pd preset;
#X msg 846 69 scene 1;
#X msg 926 69 scene 2;
#X msg 1006 69 scene 3;
#X msg 1086 69 scene 4;
#X floatatom 846 100 5 0 0 0 - #1-1_trigger_set #1-1_trigger;
#X floatatom 848 130 5 0 0 0 - #1-1_start_set #1-1_start;
#X floatatom 846 160 5 0 0 0 - #1-1_attack_set #1-1_attack;
#X floatatom 846 190 5 0 0 0 - #1-1_decay_set #1-1_decay;
#X floatatom 926 100 5 0 0 0 - #1-2_trigger_set #1-2_trigger;
#X floatatom 926 130 5 0 0 0 - #1-2_start_set #1-2_start;
#X floatatom 926 160 5 0 0 0 - #1-2_attack_set #1-2_attack;
#X floatatom 926 190 5 0 0 0 - #1-2_decay_set #1-2_decay;
#X floatatom 1006 100 5 0 0 0 - #1-3_trigger_set #1-3_trigger;
#X floatatom 1006 130 5 0 0 0 - #1-3_start_set #1-3_start;
#X floatatom 1006 160 5 0 0 0 - #1-3_attack_set #1-3_attack;
#X floatatom 1006 190 5 0 0 0 - #1-3_decay_set #1-3_decay;
#X floatatom 1086 100 5 0 0 0 - #1-4_trigger_set #1-4_trigger;
#X floatatom 1086 130 5 0 0 0 - #1-4_start_set #1-4_start;
#X floatatom 1086 160 5 0 0 0 - #1-4_attack_set #1-4_attack;
#X floatatom 1086 190 5 0 0 0 - #1-4_decay_set #1-4_decay;
#X text 1154 101 trigger;
#X obj 1372 97 bng 15 250 50 0 empty empty empty 17 7 0 10 -262144
-1 -1;
#X text 1398 93 < load a sample \, save to preset;
#X symbolatom 1370 153 20 0 0 0 - - -;
#N canvas 964 109 948 963 sampler 0;
#X obj 58 296 openpanel;
#N canvas 804 109 1108 963 extract_filename 0;
#X obj 42 31 inlet;
#X obj 43 59 list fromsymbol;
#X obj 69 841 list tosymbol;
#X obj 172 167 list length;
#X obj 398 223 float;
#X obj 403 268 + 1;
#X floatatom 171 277 5 0 0 0 - - -;
#X obj 214 398 < 27;
#X obj 302 426 tgl 15 0 empty empty empty 17 7 0 10 -262144 -1 -1 0
1;
#X obj 311 108 sel 1;
#X floatatom 98 430 5 0 0 0 - - -;
#X obj 58 567 list split;
#X obj 62 526 list;
#X obj 173 203 t b f b;
#X msg 239 238 set 0;
#X obj 173 566 pack;
#X obj 91 470 t b f f;
#X msg 141 533 \$1;
#X obj 159 624 route 47;
#X obj 387 139 del 5;
#X obj 235 353 - 1;
#X obj 148 372 t b f f;
#X obj 259 475 float;
#X obj 277 547 sel 0;
#X obj 260 708 print gold;
#X obj 259 668 float;
#X obj 41 98 t l l l;
#X obj 133 733 list;
#X obj 139 793 list split;
#X obj 187 703 t b f;
#X obj 238 767 + 1;
#X obj 64 883 outlet;
#X connect 0 0 1 0;
#X connect 1 0 26 0;
#X connect 2 0 31 0;
#X connect 3 0 13 0;
#X connect 4 0 5 0;
#X connect 5 0 6 0;
#X connect 6 0 4 1;
#X connect 6 0 21 0;
#X connect 7 0 8 0;
#X connect 7 0 22 1;
#X connect 8 0 9 0;
#X connect 9 0 19 0;
#X connect 10 0 16 0;
#X connect 11 1 17 0;
#X connect 12 0 11 0;
#X connect 13 0 6 0;
#X connect 13 1 20 0;
#X connect 13 2 14 0;
#X connect 14 0 6 0;
#X connect 15 0 18 0;
#X connect 16 0 12 0;
#X connect 16 1 11 1;
#X connect 16 2 15 1;
#X connect 17 0 15 0;
#X connect 18 0 25 1;
#X connect 19 0 4 0;
#X connect 20 0 7 1;
#X connect 21 0 22 0;
#X connect 21 1 10 0;
#X connect 21 2 7 0;
#X connect 22 0 23 0;
#X connect 23 0 25 0;
#X connect 25 0 24 0;
#X connect 25 0 29 0;
#X connect 26 0 3 0;
#X connect 26 1 12 1;
#X connect 26 2 27 1;
#X connect 27 0 28 0;
#X connect 28 1 2 0;
#X connect 29 0 27 0;
#X connect 29 1 30 0;
#X connect 30 0 28 1;
#X restore 58 327 pd extract_filename;
#X symbolatom 59 362 20 0 0 0 - - -;
#X obj 62 241 inlet;
#X obj 57 709 outlet;
#X obj 132 673 soundfiler;
#X obj 57 55 table \$1-sample 1000;
#X msg 131 637 read -resize ../audio/karelle.wav sd_kick-sample;
#X obj 186 451 symbol \$1-sample;
#X obj 159 495 pack s s;
#X obj 184 423 loadbang;
#X msg 155 599 set read -resize ../audio/\$1 \$2;
#X obj 102 544 t b l;
#X obj 57 400 retain_symbol \$1 sample;
#X obj 133 711 s \$1-sample-length;
#X connect 0 0 1 0;
#X connect 1 0 2 0;
#X connect 2 0 13 0;
#X connect 3 0 0 0;
#X connect 5 0 14 0;
#X connect 7 0 5 0;
#X connect 8 0 9 1;
#X connect 9 0 12 0;
#X connect 10 0 8 0;
#X connect 11 0 7 0;
#X connect 12 0 7 0;
#X connect 12 1 11 0;
#X connect 13 0 4 0;
#X connect 13 0 9 0;
#X restore 1371 123 pd sampler;
#X text 1161 164 attack;
#X text 1163 190 decay;
#X text 1154 131 start;
#X obj 849 309 print \$1-env;
#X text 954 312 env now gets routed to a multivoice allocation system
;
#N canvas 8 133 1904 939 env-gen 0;
#N canvas 964 109 948 963 pull_value 0;
#X obj 376 275 r scene;
#X floatatom 381 314 5 0 0 0 - - -;
#X obj 383 533 text search \$1-data;
#X obj 451 277 bng 15 250 50 0 empty empty empty 17 7 0 10 -262144
-1 -1;
#X obj 459 334 symbol \$1;
#X floatatom 463 697 5 0 0 0 - - -;
#X obj 386 592 text get \$1-data;
#X msg 572 627 \$2;
#X obj 466 251 loadbang;
#X obj 587 158 inlet;
#X obj 360 383 pack f s s;
#X msg 363 430 symbol \$2-\$1_\$3;
#X obj 476 797 outlet;
#X connect 0 0 1 0;
#X connect 1 0 10 0;
#X connect 2 0 6 0;
#X connect 3 0 4 0;
#X connect 4 0 10 1;
#X connect 5 0 12 0;
#X connect 6 0 7 0;
#X connect 7 0 5 0;
#X connect 8 0 3 0;
#X connect 9 0 10 2;
#X connect 10 0 11 0;
#X connect 11 0 2 0;
#X restore 102 97 pd pull_value;
#X obj 104 70 symbol trigger;
#X obj 96 43 loadbang;
#N canvas 71 421 744 603 select_curve 0;
#X obj 48 175 inlet;
#X obj 190 270 == 1;
#X obj 187 303 tgl 15 0 empty empty empty 17 7 0 10 -262144 -1 -1 1
1;
#X obj 162 349 spigot;
#X obj 110 119 r \$1-1_voltage;
#X obj 187 447 outlet;
#X obj 322 295 tgl 15 0 empty empty empty 17 7 0 10 -262144 -1 -1 0
1;
#X obj 297 341 spigot;
#X obj 442 295 tgl 15 0 empty empty empty 17 7 0 10 -262144 -1 -1 0
1;
#X obj 417 341 spigot;
#X obj 577 287 tgl 15 0 empty empty empty 17 7 0 10 -262144 -1 -1 0
1;
#X obj 552 333 spigot;
#X obj 325 262 == 2;
#X obj 445 262 == 3;
#X obj 580 254 == 4;
#X obj 245 111 r \$1-2_voltage;
#X obj 365 111 r \$1-3_voltage;
#X obj 500 103 r \$1-4_voltage;
#X connect 0 0 1 0;
#X connect 0 0 12 0;
#X connect 0 0 13 0;
#X connect 0 0 14 0;
#X connect 1 0 2 0;
#X connect 2 0 3 1;
#X connect 3 0 5 0;
#X connect 4 0 3 0;
#X connect 6 0 7 1;
#X connect 7 0 5 0;
#X connect 8 0 9 1;
#X connect 9 0 5 0;
#X connect 10 0 11 1;
#X connect 11 0 5 0;
#X connect 12 0 6 0;
#X connect 13 0 8 0;
#X connect 14 0 10 0;
#X connect 15 0 7 0;
#X connect 16 0 9 0;
#X connect 17 0 11 0;
#X restore 104 123 pd select_curve;
#X obj 105 155 > 0;
#X obj 106 188 change;
#X obj 100 228 sel 1;
#N canvas 964 109 948 963 pull_value 0;
#X obj 376 275 r scene;
#X floatatom 381 314 5 0 0 0 - - -;
#X obj 383 533 text search \$1-data;
#X obj 451 277 bng 15 250 50 0 empty empty empty 17 7 0 10 -262144
-1 -1;
#X obj 459 334 symbol \$1;
#X floatatom 463 697 5 0 0 0 - - -;
#X obj 386 592 text get \$1-data;
#X msg 572 627 \$2;
#X obj 466 251 loadbang;
#X obj 587 158 inlet;
#X obj 360 383 pack f s s;
#X msg 363 430 symbol \$2-\$1_\$3;
#X obj 476 797 outlet;
#X connect 0 0 1 0;
#X connect 1 0 10 0;
#X connect 2 0 6 0;
#X connect 3 0 4 0;
#X connect 4 0 10 1;
#X connect 5 0 12 0;
#X connect 6 0 7 0;
#X connect 7 0 5 0;
#X connect 8 0 3 0;
#X connect 9 0 10 2;
#X connect 10 0 11 0;
#X connect 11 0 2 0;
#X restore 277 148 pd pull_value;
#X obj 271 94 loadbang;
#N canvas 964 109 948 963 select_curve 0;
#X obj 48 175 inlet;
#X obj 190 270 == 1;
#X obj 187 303 tgl 15 0 empty empty empty 17 7 0 10 -262144 -1 -1 0
1;
#X obj 162 349 spigot;
#X obj 110 119 r \$1-1_voltage;
#X obj 187 447 outlet;
#X obj 322 295 tgl 15 0 empty empty empty 17 7 0 10 -262144 -1 -1 1
1;
#X obj 297 341 spigot;
#X obj 442 295 tgl 15 0 empty empty empty 17 7 0 10 -262144 -1 -1 0
1;
#X obj 417 341 spigot;
#X obj 577 287 tgl 15 0 empty empty empty 17 7 0 10 -262144 -1 -1 0
1;
#X obj 552 333 spigot;
#X obj 325 262 == 2;
#X obj 445 262 == 3;
#X obj 580 254 == 4;
#X obj 245 111 r \$1-2_voltage;
#X obj 365 111 r \$1-3_voltage;
#X obj 500 103 r \$1-4_voltage;
#X connect 0 0 1 0;
#X connect 0 0 12 0;
#X connect 0 0 13 0;
#X connect 0 0 14 0;
#X connect 1 0 2 0;
#X connect 2 0 3 1;
#X connect 3 0 5 0;
#X connect 4 0 3 0;
#X connect 6 0 7 1;
#X connect 7 0 5 0;
#X connect 8 0 9 1;
#X connect 9 0 5 0;
#X connect 10 0 11 1;
#X connect 11 0 5 0;
#X connect 12 0 6 0;
#X connect 13 0 8 0;
#X connect 14 0 10 0;
#X connect 15 0 7 0;
#X connect 16 0 9 0;
#X connect 17 0 11 0;
#X restore 279 174 pd select_curve;
#X obj 279 122 symbol start;
#X obj 90 437 float;
#X obj 397 82 loadbang;
#X obj 405 110 symbol attack;
#X obj 522 85 loadbang;
#X obj 530 113 symbol decay;
#X obj 80 489 pack f f f;
#N canvas 964 109 948 963 pull_value 0;
#X obj 376 275 r scene;
#X floatatom 381 314 5 0 0 0 - - -;
#X obj 383 533 text search \$1-data;
#X obj 451 277 bng 15 250 50 0 empty empty empty 17 7 0 10 -262144
-1 -1;
#X obj 459 334 symbol \$1;
#X floatatom 463 697 5 0 0 0 - - -;
#X obj 386 592 text get \$1-data;
#X msg 572 627 \$2;
#X obj 466 251 loadbang;
#X obj 587 158 inlet;
#X obj 360 383 pack f s s;
#X msg 363 430 symbol \$2-\$1_\$3;
#X obj 476 797 outlet;
#X connect 0 0 1 0;
#X connect 1 0 10 0;
#X connect 2 0 6 0;
#X connect 3 0 4 0;
#X connect 4 0 10 1;
#X connect 5 0 12 0;
#X connect 6 0 7 0;
#X connect 7 0 5 0;
#X connect 8 0 3 0;
#X connect 9 0 10 2;
#X connect 10 0 11 0;
#X connect 11 0 2 0;
#X restore 428 200 pd pull_value;
#N canvas 964 109 948 963 select_curve 0;
#X obj 48 175 inlet;
#X obj 190 270 == 1;
#X obj 187 303 tgl 15 0 empty empty empty 17 7 0 10 -262144 -1 -1 0
1;
#X obj 162 349 spigot;
#X obj 110 119 r \$1-1_voltage;
#X obj 187 447 outlet;
#X obj 322 295 tgl 15 0 empty empty empty 17 7 0 10 -262144 -1 -1 0
1;
#X obj 297 341 spigot;
#X obj 442 295 tgl 15 0 empty empty empty 17 7 0 10 -262144 -1 -1 1
1;
#X obj 417 341 spigot;
#X obj 577 287 tgl 15 0 empty empty empty 17 7 0 10 -262144 -1 -1 0
1;
#X obj 552 333 spigot;
#X obj 325 262 == 2;
#X obj 445 262 == 3;
#X obj 580 254 == 4;
#X obj 245 111 r \$1-2_voltage;
#X obj 365 111 r \$1-3_voltage;
#X obj 500 103 r \$1-4_voltage;
#X connect 0 0 1 0;
#X connect 0 0 12 0;
#X connect 0 0 13 0;
#X connect 0 0 14 0;
#X connect 1 0 2 0;
#X connect 2 0 3 1;
#X connect 3 0 5 0;
#X connect 4 0 3 0;
#X connect 6 0 7 1;
#X connect 7 0 5 0;
#X connect 8 0 9 1;
#X connect 9 0 5 0;
#X connect 10 0 11 1;
#X connect 11 0 5 0;
#X connect 12 0 6 0;
#X connect 13 0 8 0;
#X connect 14 0 10 0;
#X connect 15 0 7 0;
#X connect 16 0 9 0;
#X connect 17 0 11 0;
#X restore 430 226 pd select_curve;
#N canvas 964 109 948 963 pull_value 0;
#X obj 376 275 r scene;
#X floatatom 381 314 5 0 0 0 - - -;
#X obj 383 533 text search \$1-data;
#X obj 451 277 bng 15 250 50 0 empty empty empty 17 7 0 10 -262144
-1 -1;
#X obj 459 334 symbol \$1;
#X floatatom 463 697 5 0 0 0 - - -;
#X obj 386 592 text get \$1-data;
#X msg 572 627 \$2;
#X obj 466 251 loadbang;
#X obj 587 158 inlet;
#X obj 360 383 pack f s s;
#X msg 363 430 symbol \$2-\$1_\$3;
#X obj 476 797 outlet;
#X connect 0 0 1 0;
#X connect 1 0 10 0;
#X connect 2 0 6 0;
#X connect 3 0 4 0;
#X connect 4 0 10 1;
#X connect 5 0 12 0;
#X connect 6 0 7 0;
#X connect 7 0 5 0;
#X connect 8 0 3 0;
#X connect 9 0 10 2;
#X connect 10 0 11 0;
#X connect 11 0 2 0;
#X restore 567 175 pd pull_value;
#N canvas 964 109 948 963 select_curve 0;
#X obj 48 175 inlet;
#X obj 190 270 == 1;
#X obj 187 303 tgl 15 0 empty empty empty 17 7 0 10 -262144 -1 -1 0
1;
#X obj 162 349 spigot;
#X obj 110 119 r \$1-1_voltage;
#X obj 187 447 outlet;
#X obj 322 295 tgl 15 0 empty empty empty 17 7 0 10 -262144 -1 -1 0
1;
#X obj 297 341 spigot;
#X obj 442 295 tgl 15 0 empty empty empty 17 7 0 10 -262144 -1 -1 0
1;
#X obj 417 341 spigot;
#X obj 577 287 tgl 15 0 empty empty empty 17 7 0 10 -262144 -1 -1 1
1;
#X obj 552 333 spigot;
#X obj 325 262 == 2;
#X obj 445 262 == 3;
#X obj 580 254 == 4;
#X obj 245 111 r \$1-2_voltage;
#X obj 365 111 r \$1-3_voltage;
#X obj 500 103 r \$1-4_voltage;
#X connect 0 0 1 0;
#X connect 0 0 12 0;
#X connect 0 0 13 0;
#X connect 0 0 14 0;
#X connect 1 0 2 0;
#X connect 2 0 3 1;
#X connect 3 0 5 0;
#X connect 4 0 3 0;
#X connect 6 0 7 1;
#X connect 7 0 5 0;
#X connect 8 0 9 1;
#X connect 9 0 5 0;
#X connect 10 0 11 1;
#X connect 11 0 5 0;
#X connect 12 0 6 0;
#X connect 13 0 8 0;
#X connect 14 0 10 0;
#X connect 15 0 7 0;
#X connect 16 0 9 0;
#X connect 17 0 11 0;
#X restore 569 201 pd select_curve;
#X obj 140 266 t b;
#X floatatom 460 352 5 0 0 0 - - -;
#X floatatom 571 352 5 0 0 0 - - -;
#X obj 236 227 + 1;
#X obj 237 270 * 0.5;
#X obj 479 394 + 1;
#X obj 480 437 * 0.5;
#X obj 643 401 + 1;
#X obj 644 444 * 0.5;
#X obj 254 313 r \$1-sample-length;
#X obj 204 369 *;
#X floatatom 193 419 20 0 0 0 - - -;
#X obj 413 483 * 1000;
#X obj 565 474 * 1000;
#X obj 74 524 s \$1-env;
#X connect 0 0 3 0;
#X connect 1 0 0 0;
#X connect 2 0 1 0;
#X connect 3 0 4 0;
#X connect 4 0 5 0;
#X connect 5 0 6 0;
#X connect 6 0 21 0;
#X connect 7 0 9 0;
#X connect 8 0 10 0;
#X connect 9 0 24 0;
#X connect 10 0 7 0;
#X connect 11 0 16 0;
#X connect 12 0 13 0;
#X connect 13 0 17 0;
#X connect 14 0 15 0;
#X connect 15 0 19 0;
#X connect 16 0 35 0;
#X connect 17 0 18 0;
#X connect 18 0 22 0;
#X connect 19 0 20 0;
#X connect 20 0 23 0;
#X connect 21 0 11 0;
#X connect 22 0 26 0;
#X connect 23 0 28 0;
#X connect 24 0 25 0;
#X connect 25 0 31 0;
#X connect 26 0 27 0;
#X connect 27 0 33 0;
#X connect 28 0 29 0;
#X connect 29 0 34 0;
#X connect 30 0 31 1;
#X connect 31 0 32 0;
#X connect 31 0 11 1;
#X connect 33 0 16 1;
#X connect 34 0 16 2;
#X restore 849 253 pd env-gen;
#X obj 849 277 r \$1-env;
#X connect 43 0 46 0;
#X connect 46 0 45 0;
#X connect 53 0 50 0;
