#N canvas 8 109 1904 963 12;
#N canvas 0 50 450 250 (subpatch) 0;
#X array \$1-1 1000 float 0;
#X coords 0 1 999 -1 400 50 1 0 0;
#X restore 66 99 graph;
#X obj 51 101 vsl 10 45 0 127 0 0 empty \$1-1_value empty 0 -9 0 10
-159808 -232576 -1 0 1;
#X obj 69 154 hsl 395 10 0 1000 0 0 empty \$1-1_index empty -2 -8 0
10 -232576 -159808 -1 0 1;
#X floatatom 476 99 7 0 0 0 - #1-1_rate_set #1-1_rate;
#X obj 476 129 curve \$1 1;
#X obj 46 39 bng 20 250 50 0 \$1_save empty empty 17 7 0 10 -262144
-159808 -232576;
#N canvas 0 50 450 250 (subpatch) 0;
#X array \$1-2 1000 float 0;
#X coords 0 1 999 -1 400 50 1 0 0;
#X restore 66 199 graph;
#X obj 51 201 vsl 10 45 0 127 0 0 empty \$1-2_value empty 0 -9 0 10
-159808 -232576 -1 0 1;
#X obj 69 254 hsl 395 10 0 1000 0 0 empty \$1-2_index empty -2 -8 0
10 -232576 -159808 -1 0 1;
#X floatatom 476 199 7 0 0 0 - #1-2_rate_set #1-2_rate;
#X obj 476 229 curve \$1 2;
#N canvas 0 50 450 250 (subpatch) 0;
#X array \$1-3 1000 float 0;
#X coords 0 1 999 -1 400 50 1 0 0;
#X restore 66 299 graph;
#X obj 51 301 vsl 10 45 0 127 0 0 empty \$1-3_value empty 0 -9 0 10
-159808 -232576 -1 0 1;
#X obj 69 354 hsl 395 10 0 1000 0 0 empty \$1-3_index empty -2 -8 0
10 -232576 -159808 -1 0 1;
#X floatatom 476 299 7 0 0 0 - #1-3_rate_set #1-3_rate;
#N canvas 964 109 948 963 (subpatch) 0;
#X array \$1-4 1000 float 0;
#X coords 0 1 999 -1 400 50 1 0 0;
#X restore 66 399 graph;
#X obj 51 401 vsl 10 45 0 127 0 0 empty \$1-4_value empty 0 -9 0 10
-159808 -232576 -1 0 1;
#X obj 69 454 hsl 395 10 0 1000 0 0 empty \$1-4_index empty -2 -8 0
10 -232576 -159808 -1 0 1;
#X floatatom 476 399 7 0 0 0 - #1-4_rate_set #1-4_rate;
#X obj 476 329 curve \$1 3;
#X obj 476 429 curve \$1 4;
#N canvas 964 109 948 963 preset 0;
#X msg 494 226 write ../text/sd_kick.txt;
#X msg 504 286 read ../text/sd_kick.txt;
#X obj 494 316 text define \$1-data;
#X obj 506 178 r \$1-data_save;
#X obj 504 256 r \$1-data_load;
#X obj 685 76 loadbang;
#X obj 685 106 t b b;
#X obj 687 218 s \$1-data_load;
#X obj 782 275 symbol \$1;
#X msg 721 324 set write ../text/\$1.txt;
#X msg 725 370 set read ../text/\$1.txt;
#X obj 840 168 bng 15 250 50 0 empty empty empty 17 7 0 10 -262144
-1 -1;
#X obj 269 612 retain_float \$1 1_start;
#X obj 269 642 retain_float \$1 1_attack;
#X obj 269 672 retain_float \$1 1_decay;
#X obj 24 541 retain_float \$1 2_start;
#X obj 24 571 retain_float \$1 2_attack;
#X obj 24 601 retain_float \$1 2_decay;
#X obj 24 671 retain_float \$1 3_start;
#X obj 24 701 retain_float \$1 3_attack;
#X obj 24 731 retain_float \$1 3_decay;
#X obj 24 801 retain_float \$1 4_start;
#X obj 24 831 retain_float \$1 4_attack;
#X obj 24 861 retain_float \$1 4_decay;
#X obj 26 27 retain_float \$1 1_rate;
#X obj 26 57 retain_float \$1 2_rate;
#X obj 26 87 retain_float \$1 3_rate;
#X obj 26 117 retain_float \$1 4_rate;
#X obj 30 164 retain_float \$1 5_rate;
#X obj 30 194 retain_float \$1 6_rate;
#X obj 30 224 retain_float \$1 7_rate;
#X obj 30 254 retain_float \$1 8_rate;
#X obj 603 462 retain_float \$1 1_trigger_curve;
#X obj 606 492 retain_float \$1 1_trigger_scale;
#X obj 606 517 retain_float \$1 1_trigger_shift;
#X obj 597 551 retain_float \$1 2_trigger_curve;
#X obj 600 581 retain_float \$1 2_trigger_scale;
#X obj 600 606 retain_float \$1 2_trigger_shift;
#X obj 597 649 retain_float \$1 3_trigger_curve;
#X obj 600 679 retain_float \$1 3_trigger_scale;
#X obj 600 704 retain_float \$1 3_trigger_shift;
#X obj 592 737 retain_float \$1 4_trigger_curve;
#X obj 594 768 retain_float \$1 4_trigger_scale;
#X obj 594 793 retain_float \$1 4_trigger_shift;
#X connect 0 0 2 0;
#X connect 1 0 2 0;
#X connect 3 0 0 0;
#X connect 4 0 1 0;
#X connect 5 0 6 0;
#X connect 6 0 7 0;
#X connect 6 1 8 0;
#X connect 8 0 9 0;
#X connect 8 0 10 0;
#X connect 9 0 0 0;
#X connect 10 0 1 0;
#X connect 11 0 8 0;
#X restore 76 39 pd preset;
#X msg 1123 65 scene 2;
#X msg 1203 65 scene 3;
#X msg 1283 65 scene 4;
#X floatatom 739 107 5 0 0 1 curve #1-1_trigger_curve_set #1-1_trigger_curve
;
#X floatatom 1123 96 5 0 0 0 - #1-2_trigger_set #1-2_trigger;
#X floatatom 1123 126 5 0 0 0 - #1-2_start_set #1-2_start;
#X floatatom 1123 156 5 0 0 0 - #1-2_attack_set #1-2_attack;
#X floatatom 1123 186 5 0 0 0 - #1-2_decay_set #1-2_decay;
#X floatatom 1203 96 5 0 0 0 - #1-3_trigger_set #1-3_trigger;
#X floatatom 1203 126 5 0 0 0 - #1-3_start_set #1-3_start;
#X floatatom 1203 156 5 0 0 0 - #1-3_attack_set #1-3_attack;
#X floatatom 1203 186 5 0 0 0 - #1-3_decay_set #1-3_decay;
#X floatatom 1283 96 5 0 0 0 - #1-4_trigger_set #1-4_trigger;
#X floatatom 1283 126 5 0 0 0 - #1-4_start_set #1-4_start;
#X floatatom 1283 156 5 0 0 0 - #1-4_attack_set #1-4_attack;
#X floatatom 1283 186 5 0 0 0 - #1-4_decay_set #1-4_decay;
#X text 1351 97 trigger;
#X obj 1569 93 bng 15 250 50 0 empty empty empty 17 7 0 10 -262144
-1 -1;
#X text 1595 89 < load a sample \, save to preset;
#X symbolatom 1567 149 20 0 0 0 - - -;
#N canvas 964 109 948 963 sampler 0;
#X obj 58 296 openpanel;
#N canvas 804 109 1108 963 extract_filename 0;
#X obj 42 31 inlet;
#X obj 43 59 list fromsymbol;
#X obj 69 841 list tosymbol;
#X obj 172 167 list length;
#X obj 398 223 float;
#X obj 403 268 + 1;
#X floatatom 171 277 5 0 0 0 - - -;
#X obj 214 398 < 27;
#X obj 302 426 tgl 15 0 empty empty empty 17 7 0 10 -262144 -1 -1 0
1;
#X obj 311 108 sel 1;
#X floatatom 98 430 5 0 0 0 - - -;
#X obj 58 567 list split;
#X obj 62 526 list;
#X obj 173 203 t b f b;
#X msg 239 238 set 0;
#X obj 173 566 pack;
#X obj 91 470 t b f f;
#X msg 141 533 \$1;
#X obj 159 624 route 47;
#X obj 387 139 del 5;
#X obj 235 353 - 1;
#X obj 148 372 t b f f;
#X obj 259 475 float;
#X obj 277 547 sel 0;
#X obj 260 708 print gold;
#X obj 259 668 float;
#X obj 41 98 t l l l;
#X obj 133 733 list;
#X obj 139 793 list split;
#X obj 187 703 t b f;
#X obj 238 767 + 1;
#X obj 64 883 outlet;
#X connect 0 0 1 0;
#X connect 1 0 26 0;
#X connect 2 0 31 0;
#X connect 3 0 13 0;
#X connect 4 0 5 0;
#X connect 5 0 6 0;
#X connect 6 0 4 1;
#X connect 6 0 21 0;
#X connect 7 0 8 0;
#X connect 7 0 22 1;
#X connect 8 0 9 0;
#X connect 9 0 19 0;
#X connect 10 0 16 0;
#X connect 11 1 17 0;
#X connect 12 0 11 0;
#X connect 13 0 6 0;
#X connect 13 1 20 0;
#X connect 13 2 14 0;
#X connect 14 0 6 0;
#X connect 15 0 18 0;
#X connect 16 0 12 0;
#X connect 16 1 11 1;
#X connect 16 2 15 1;
#X connect 17 0 15 0;
#X connect 18 0 25 1;
#X connect 19 0 4 0;
#X connect 20 0 7 1;
#X connect 21 0 22 0;
#X connect 21 1 10 0;
#X connect 21 2 7 0;
#X connect 22 0 23 0;
#X connect 23 0 25 0;
#X connect 25 0 24 0;
#X connect 25 0 29 0;
#X connect 26 0 3 0;
#X connect 26 1 12 1;
#X connect 26 2 27 1;
#X connect 27 0 28 0;
#X connect 28 1 2 0;
#X connect 29 0 27 0;
#X connect 29 1 30 0;
#X connect 30 0 28 1;
#X restore 58 327 pd extract_filename;
#X symbolatom 59 362 20 0 0 0 - - -;
#X obj 62 241 inlet;
#X obj 57 709 outlet;
#X obj 132 673 soundfiler;
#X obj 57 55 table \$1-sample 1000;
#X msg 131 637 read -resize ../audio/karelle.wav sd_kick-sample;
#X obj 186 451 symbol \$1-sample;
#X obj 159 495 pack s s;
#X obj 184 423 loadbang;
#X msg 155 599 set read -resize ../audio/\$1 \$2;
#X obj 102 544 t b l;
#X obj 57 400 retain_symbol \$1 sample;
#X obj 133 711 s \$1-sample-length;
#X connect 0 0 1 0;
#X connect 1 0 2 0;
#X connect 2 0 13 0;
#X connect 3 0 0 0;
#X connect 5 0 14 0;
#X connect 7 0 5 0;
#X connect 8 0 9 1;
#X connect 9 0 12 0;
#X connect 10 0 8 0;
#X connect 11 0 7 0;
#X connect 12 0 7 0;
#X connect 12 1 11 0;
#X connect 13 0 4 0;
#X connect 13 0 9 0;
#X restore 1568 119 pd sampler;
#X text 1358 160 attack;
#X text 1360 186 decay;
#X text 1351 127 start;
#X obj 743 883 print \$1-env;
#X text 848 886 env now gets routed to a multivoice allocation system
;
#N canvas 614 109 598 963 env-gen 0;
#X obj 91 456 > 0;
#X obj 92 489 change;
#X obj 86 529 sel 1;
#N canvas 964 109 948 963 pull_value 0;
#X obj 376 275 r scene;
#X floatatom 381 314 5 0 0 0 - - -;
#X obj 383 533 text search \$1-data;
#X obj 451 277 bng 15 250 50 0 empty empty empty 17 7 0 10 -262144
-1 -1;
#X obj 459 334 symbol \$1;
#X floatatom 463 697 5 0 0 0 - - -;
#X obj 386 592 text get \$1-data;
#X msg 572 627 \$2;
#X obj 466 251 loadbang;
#X obj 587 158 inlet;
#X obj 360 383 pack f s s;
#X msg 363 430 symbol \$2-\$1_\$3;
#X obj 476 797 outlet;
#X connect 0 0 1 0;
#X connect 1 0 10 0;
#X connect 2 0 6 0;
#X connect 3 0 4 0;
#X connect 4 0 10 1;
#X connect 5 0 12 0;
#X connect 6 0 7 0;
#X connect 7 0 5 0;
#X connect 8 0 3 0;
#X connect 9 0 10 2;
#X connect 10 0 11 0;
#X connect 11 0 2 0;
#X restore 277 148 pd pull_value;
#X obj 271 94 loadbang;
#X obj 279 122 symbol start;
#X obj 76 738 float;
#X obj 397 82 loadbang;
#X obj 405 110 symbol attack;
#X obj 522 85 loadbang;
#X obj 530 113 symbol decay;
#X obj 66 864 pack f f f;
#N canvas 1186 393 726 679 pull_value 0;
#X obj 376 275 r scene;
#X floatatom 381 314 5 0 0 0 - - -;
#X obj 383 533 text search \$1-data;
#X obj 451 277 bng 15 250 50 0 empty empty empty 17 7 0 10 -262144
-1 -1;
#X obj 459 334 symbol \$1;
#X floatatom 463 697 5 0 0 0 - - -;
#X obj 386 592 text get \$1-data;
#X msg 572 627 \$2;
#X obj 466 251 loadbang;
#X obj 587 158 inlet;
#X obj 360 383 pack f s s;
#X msg 363 430 symbol \$2-\$1_\$3;
#X obj 476 797 outlet;
#X connect 0 0 1 0;
#X connect 1 0 10 0;
#X connect 2 0 6 0;
#X connect 3 0 4 0;
#X connect 4 0 10 1;
#X connect 5 0 12 0;
#X connect 6 0 7 0;
#X connect 7 0 5 0;
#X connect 8 0 3 0;
#X connect 9 0 10 2;
#X connect 10 0 11 0;
#X connect 11 0 2 0;
#X restore 428 200 pd pull_value;
#N canvas 964 109 948 963 pull_value 0;
#X obj 376 275 r scene;
#X floatatom 381 314 5 0 0 0 - - -;
#X obj 383 533 text search \$1-data;
#X obj 451 277 bng 15 250 50 0 empty empty empty 17 7 0 10 -262144
-1 -1;
#X obj 459 334 symbol \$1;
#X floatatom 463 697 5 0 0 0 - - -;
#X obj 386 592 text get \$1-data;
#X msg 572 627 \$2;
#X obj 466 251 loadbang;
#X obj 587 158 inlet;
#X obj 360 383 pack f s s;
#X msg 363 430 symbol \$2-\$1_\$3;
#X obj 476 797 outlet;
#X connect 0 0 1 0;
#X connect 1 0 10 0;
#X connect 2 0 6 0;
#X connect 3 0 4 0;
#X connect 4 0 10 1;
#X connect 5 0 12 0;
#X connect 6 0 7 0;
#X connect 7 0 5 0;
#X connect 8 0 3 0;
#X connect 9 0 10 2;
#X connect 10 0 11 0;
#X connect 11 0 2 0;
#X restore 567 175 pd pull_value;
#X obj 126 567 t b;
#X floatatom 460 352 5 0 0 0 - - -;
#X floatatom 571 352 5 0 0 0 - - -;
#X obj 334 227 + 1;
#X obj 335 270 * 0.5;
#X obj 479 394 + 1;
#X obj 480 437 * 0.5;
#X obj 643 401 + 1;
#X obj 644 444 * 0.5;
#X obj 254 313 r \$1-sample-length;
#X obj 204 369 *;
#X floatatom 193 419 20 0 0 0 - - -;
#X obj 413 483 * 1000;
#X obj 565 474 * 1000;
#X obj 60 899 s \$1-env;
#X obj 24 61 select_curve \$1;
#X obj 279 174 select_curve \$1;
#X obj 430 227 select_curve \$1;
#X obj 569 201 select_curve \$1;
#X obj 117 786 pipe 1;
#X obj 399 829 hsl 128 15 0 127 0 0 empty empty empty -2 -8 0 10 -262144
-1 -1 0 1;
#X obj 395 689 + 1;
#X obj 397 725 / 2;
#X obj 401 767 * 127;
#X obj 24 31 pull_value \$1 trigger_curve;
#X obj 535 610 pull_value \$1 trigger_scale;
#X floatatom 488 658 5 0 0 0 - - -;
#X obj 34 91 pull_value \$1 trigger_scale;
#X obj 34 181 pull_value \$1 trigger_shift;
#X obj 24 151 *;
#X obj 34 121 t b f;
#X obj 24 241 +;
#X obj 34 211 t b f;
#X obj 24 271 clip -1 1;
#X floatatom 48 420 5 0 0 0 - - -;
#X obj 427 874 s \$1-trigger_signal;
#X connect 0 0 1 0;
#X connect 1 0 2 0;
#X connect 2 0 14 0;
#X connect 3 0 30 0;
#X connect 4 0 5 0;
#X connect 5 0 3 0;
#X connect 6 0 33 0;
#X connect 7 0 8 0;
#X connect 8 0 12 0;
#X connect 9 0 10 0;
#X connect 10 0 13 0;
#X connect 11 0 28 0;
#X connect 12 0 31 0;
#X connect 13 0 32 0;
#X connect 14 0 6 0;
#X connect 15 0 19 0;
#X connect 16 0 21 0;
#X connect 17 0 18 0;
#X connect 18 0 24 0;
#X connect 19 0 20 0;
#X connect 20 0 26 0;
#X connect 21 0 22 0;
#X connect 22 0 27 0;
#X connect 23 0 24 1;
#X connect 24 0 25 0;
#X connect 24 0 6 1;
#X connect 26 0 11 1;
#X connect 27 0 11 2;
#X connect 29 0 43 0;
#X connect 30 0 17 0;
#X connect 31 0 15 0;
#X connect 32 0 16 0;
#X connect 33 0 11 0;
#X connect 34 0 49 0;
#X connect 35 0 36 0;
#X connect 36 0 37 0;
#X connect 37 0 34 0;
#X connect 38 0 29 0;
#X connect 39 0 40 0;
#X connect 41 0 44 0;
#X connect 42 0 46 0;
#X connect 43 0 45 0;
#X connect 44 0 43 0;
#X connect 44 1 43 1;
#X connect 45 0 47 0;
#X connect 46 0 45 0;
#X connect 46 1 45 1;
#X connect 47 0 48 0;
#X connect 48 0 0 0;
#X connect 48 0 35 0;
#X restore 743 827 pd env-gen;
#X obj 743 851 r \$1-env;
#X obj 1368 350 r \$1-env;
#X obj 1369 412 f;
#X obj 1481 413 + 1;
#X obj 1372 440 % 4;
#X obj 1370 384 t b l;
#X obj 1379 468 list append;
#X obj 1382 501 route 0 1 2 3;
#X obj 1388 794 dac~;
#N canvas 964 109 948 963 droplet 0;
#X msg 117 192 0;
#X obj 67 473 tabread~ \$1-sample;
#X obj 313 383 vline~;
#X obj 104 551 *~;
#X obj 196 512 *~;
#X msg 205 209 1 \$2 \, 0 \$3 \$2;
#X msg 174 331 \$1;
#X obj 99 391 +~;
#X obj 77 330 *~ 441000;
#X obj 176 157 t b l l;
#X obj 71 223 phasor~ 0.1;
#X obj 146 59 inlet;
#X obj 82 591 outlet~;
#X connect 0 0 10 1;
#X connect 1 0 3 0;
#X connect 2 0 4 0;
#X connect 2 0 4 1;
#X connect 3 0 12 0;
#X connect 4 0 3 1;
#X connect 5 0 2 0;
#X connect 6 0 7 1;
#X connect 7 0 1 0;
#X connect 8 0 7 0;
#X connect 9 0 0 0;
#X connect 9 1 5 0;
#X connect 9 2 6 0;
#X connect 10 0 8 0;
#X connect 11 0 9 0;
#X restore 1374 548 pd droplet;
#N canvas 964 109 948 963 droplet 0;
#X msg 117 192 0;
#X obj 72 364 tabread~ \$1-sample;
#X obj 190 313 vline~;
#X obj 109 442 *~;
#X obj 201 403 *~;
#X msg 205 209 1 \$2 \, 0 \$3 \$2;
#X msg 173 255 \$1;
#X obj 98 315 +~;
#X obj 76 254 *~ 441000;
#X obj 176 157 t b l l;
#X obj 71 223 phasor~ 0.1;
#X obj 146 59 inlet;
#X obj 87 482 outlet~;
#X connect 0 0 10 1;
#X connect 1 0 3 0;
#X connect 2 0 4 0;
#X connect 2 0 4 1;
#X connect 3 0 12 0;
#X connect 4 0 3 1;
#X connect 5 0 2 0;
#X connect 6 0 7 1;
#X connect 7 0 1 0;
#X connect 8 0 7 0;
#X connect 9 0 0 0;
#X connect 9 1 5 0;
#X connect 9 2 6 0;
#X connect 10 0 8 0;
#X connect 11 0 9 0;
#X restore 1393 584 pd droplet;
#N canvas 964 109 948 963 droplet 0;
#X msg 117 192 0;
#X obj 72 364 tabread~ \$1-sample;
#X obj 190 313 vline~;
#X obj 109 442 *~;
#X obj 201 403 *~;
#X msg 205 209 1 \$2 \, 0 \$3 \$2;
#X msg 173 255 \$1;
#X obj 98 315 +~;
#X obj 76 254 *~ 441000;
#X obj 176 157 t b l l;
#X obj 71 223 phasor~ 0.1;
#X obj 146 59 inlet;
#X obj 87 482 outlet~;
#X connect 0 0 10 1;
#X connect 1 0 3 0;
#X connect 2 0 4 0;
#X connect 2 0 4 1;
#X connect 3 0 12 0;
#X connect 4 0 3 1;
#X connect 5 0 2 0;
#X connect 6 0 7 1;
#X connect 7 0 1 0;
#X connect 8 0 7 0;
#X connect 9 0 0 0;
#X connect 9 1 5 0;
#X connect 9 2 6 0;
#X connect 10 0 8 0;
#X connect 11 0 9 0;
#X restore 1417 624 pd droplet;
#N canvas 964 109 948 963 droplet 0;
#X msg 117 192 0;
#X obj 72 364 tabread~ \$1-sample;
#X obj 190 313 vline~;
#X obj 109 442 *~;
#X obj 201 403 *~;
#X msg 205 209 1 \$2 \, 0 \$3 \$2;
#X msg 173 255 \$1;
#X obj 98 315 +~;
#X obj 76 254 *~ 441000;
#X obj 176 157 t b l l;
#X obj 71 223 phasor~ 0.1;
#X obj 146 59 inlet;
#X obj 87 482 outlet~;
#X connect 0 0 10 1;
#X connect 1 0 3 0;
#X connect 2 0 4 0;
#X connect 2 0 4 1;
#X connect 3 0 12 0;
#X connect 4 0 3 1;
#X connect 5 0 2 0;
#X connect 6 0 7 1;
#X connect 7 0 1 0;
#X connect 8 0 7 0;
#X connect 9 0 0 0;
#X connect 9 1 5 0;
#X connect 9 2 6 0;
#X connect 10 0 8 0;
#X connect 11 0 9 0;
#X restore 1449 643 pd droplet;
#X obj 1383 754 *~ 1;
#X text 1516 583 droplet should be an abstraction;
#X text 1455 440 things to add pitch \, amplitude and eq;
#X text 1563 749 add ability to kill whole track;
#N canvas 0 50 450 250 (subpatch) 0;
#X array \$1-5 1000 float 0;
#X coords 0 1 999 -1 400 50 1 0 0;
#X restore 66 499 graph;
#X obj 51 501 vsl 10 45 0 127 0 0 empty \$1-5_value empty 0 -9 0 10
-159808 -232576 -1 0 1;
#X obj 69 554 hsl 395 10 0 1000 0 0 empty \$1-5_index empty -2 -8 0
10 -232576 -159808 -1 0 1;
#X floatatom 476 499 7 0 0 0 - #1-5_rate_set #1-5_rate;
#N canvas 0 50 450 250 (subpatch) 0;
#X array \$1-6 1000 float 0;
#X coords 0 1 999 -1 400 50 1 0 0;
#X restore 66 599 graph;
#X obj 51 601 vsl 10 45 0 127 0 0 empty \$1-6_value empty 0 -9 0 10
-159808 -232576 -1 0 1;
#X obj 69 654 hsl 395 10 0 1000 0 0 empty \$1-6_index empty -2 -8 0
10 -232576 -159808 -1 0 1;
#X floatatom 476 599 7 0 0 0 - #1-6_rate_set #1-6_rate;
#N canvas 0 50 450 250 (subpatch) 0;
#X array \$1-7 1000 float 0;
#X coords 0 1 999 -1 400 50 1 0 0;
#X restore 66 699 graph;
#X obj 51 701 vsl 10 45 0 127 0 0 empty \$1-7_value empty 0 -9 0 10
-159808 -232576 -1 0 1;
#X obj 69 754 hsl 395 10 0 1000 0 0 empty \$1-7_index empty -2 -8 0
10 -232576 -159808 -1 0 1;
#X floatatom 476 699 7 0 0 0 - #1-7_rate_set #1-7_rate;
#N canvas 964 109 948 963 (subpatch) 0;
#X array \$1-8 1000 float 0;
#X coords 0 1 999 -1 400 50 1 0 0;
#X restore 66 799 graph;
#X obj 51 801 vsl 10 45 0 127 0 0 empty \$1-8_value empty 0 -9 0 10
-159808 -232576 -1 0 1;
#X obj 69 854 hsl 395 10 0 1000 0 0 empty \$1-8_index empty -2 -8 0
10 -232576 -159808 -1 0 1;
#X floatatom 476 799 7 0 0 0 - #1-8_rate_set #1-8_rate;
#X obj 476 529 curve \$1 5;
#X obj 476 629 curve \$1 6;
#X obj 476 729 curve \$1 7;
#X obj 476 829 curve \$1 8;
#X floatatom 839 107 5 0 0 1 scale #1-1_trigger_scale_set #1-1_trigger_scale
;
#X floatatom 939 107 5 0 0 1 shift #1-1_trigger_shift_set #1-1_trigger_shift
;
#X obj 644 240 hsl 350 15 0 127 0 0 empty \$1-trigger_signal trigger
-2 -8 0 10 -261234 -258113 -258113 0 1;
#X obj 639 107 tgl 19 0 empty scene_one_tgl scene_1 22 9 0 12 -262144
-1 -1 0 1;
#X floatatom 739 137 5 0 0 1 curve #1-2_trigger_curve_set #1-2_trigger_curve
;
#X floatatom 839 137 5 0 0 1 scale #1-2_trigger_scale_set #1-2_trigger_scale
;
#X floatatom 939 137 5 0 0 1 shift #1-2_trigger_shift_set #1-2_trigger_shift
;
#X obj 639 137 tgl 19 0 empty scene_two_tgl scene_2 22 9 0 12 -262144
-1 -1 0 1;
#X floatatom 739 167 5 0 0 1 curve #1-3_trigger_curve_set #1-3_trigger_curve
;
#X floatatom 839 167 5 0 0 1 scale #1-3_trigger_scale_set #1-3_trigger_scale
;
#X floatatom 939 167 5 0 0 1 shift #1-3_trigger_shift_set #1-3_trigger_shift
;
#X obj 639 167 tgl 19 0 empty scene_three_tgl scene_3 22 9 0 12 -262144
-1 -1 0 1;
#X floatatom 739 197 5 0 0 1 curve #1-4_trigger_curve_set #1-4_trigger_curve
;
#X floatatom 839 197 5 0 0 1 scale #1-4_trigger_scale_set #1-4_trigger_scale
;
#X floatatom 939 197 5 0 0 1 shift #1-4_trigger_shift_set #1-4_trigger_shift
;
#X obj 639 197 tgl 19 0 empty scene_four_tgl scene_4 22 9 0 12 -262144
-1 -1 0 1;
#X obj 674 300 router \$1 trigger;
#X text 1141 279 okay \, you can have arrays in graph on parent \,
ripper;
#X connect 39 0 42 0;
#X connect 42 0 41 0;
#X connect 49 0 46 0;
#X connect 50 0 54 0;
#X connect 51 0 52 0;
#X connect 51 0 53 0;
#X connect 52 0 51 1;
#X connect 53 0 55 0;
#X connect 54 0 51 0;
#X connect 54 1 55 1;
#X connect 55 0 56 0;
#X connect 56 0 58 0;
#X connect 56 1 59 0;
#X connect 56 2 60 0;
#X connect 56 3 61 0;
#X connect 58 0 62 0;
#X connect 59 0 62 0;
#X connect 60 0 62 0;
#X connect 61 0 62 0;
#X connect 62 0 57 0;
#X connect 62 0 57 1;
