#N canvas 954 552 948 443 12;
#X obj 84 37 r scene;
#X obj 62 252 text search \$1-data;
#X obj 99 99 symbol \$1;
#X obj 59 284 text get \$1-data;
#X msg 76 356 \$2;
#X obj 99 67 loadbang;
#X obj 61 188 pack f s s;
#X msg 60 218 symbol \$2-\$1_\$3;
#X obj 74 389 outlet;
#X obj 110 126 loadbang;
#X obj 110 158 symbol \$2;
#X obj 63 315 route bang;
#X connect 0 0 6 0;
#X connect 1 0 3 0;
#X connect 2 0 6 1;
#X connect 3 0 11 0;
#X connect 4 0 8 0;
#X connect 5 0 2 0;
#X connect 6 0 7 0;
#X connect 7 0 1 0;
#X connect 9 0 10 0;
#X connect 10 0 6 2;
#X connect 11 1 4 0;
