#N canvas 964 629 948 443 12;
#X text 69 52 generic save function \, pull in value (inlet) and key
(arg) \, output value (outlet);
#N canvas 1442 629 470 443 income 0;
#X msg 77 223 list \$1 \$2;
#X obj 87 163 symbol \$1-\$2;
#X obj 86 342 outlet;
#X obj 156 279 t l l;
#X obj 195 316 outlet;
#X obj 77 133 t f b;
#X obj 77 193 pack f s;
#X msg 255 111 56;
#X floatatom 271 186 5 0 0 0 - - -;
#X obj 89 54 r \$1-\$2;
#X connect 0 0 3 0;
#X connect 1 0 6 1;
#X connect 3 0 2 0;
#X connect 3 1 4 0;
#X connect 5 0 6 0;
#X connect 5 1 1 0;
#X connect 6 0 0 0;
#X connect 7 0 8 0;
#X connect 9 0 5 0;
#X restore 116 134 pd income;
#N canvas 8 109 948 443 set_value 0;
#X obj 278 52 inlet;
#X obj 283 109 t l l;
#X obj 444 239 route -1;
#X obj 444 209 change;
#X obj 454 149 loadbang;
#X msg 454 179 9999;
#X msg 444 299 9999;
#X msg 262 332 list \$2 \$1;
#X msg 444 89 symbol \$2;
#X obj 444 269 t b;
#X obj 494 299 t f;
#X obj 437 386 text set \$1-data;
#X obj 444 119 text search \$1-data;
#X connect 0 0 1 0;
#X connect 1 0 7 0;
#X connect 1 1 8 0;
#X connect 2 0 9 0;
#X connect 2 1 10 0;
#X connect 3 0 2 0;
#X connect 4 0 5 0;
#X connect 5 0 3 0;
#X connect 6 0 11 1;
#X connect 7 0 11 0;
#X connect 8 0 12 0;
#X connect 9 0 6 0;
#X connect 10 0 11 1;
#X connect 12 0 3 0;
#X restore 140 176 pd set_value;
#N canvas 8 109 1904 963 read_value 1;
#X msg 286 189 symbol \$2;
#X obj 299 284 text get \$1-data;
#X obj 299 254 text search \$1-data;
#X obj 259 330 t b;
#X obj 199 613 s \$1-data_save;
#X obj 478 215 symbol \$1-\$2;
#X obj 473 131 loadbang;
#X obj 485 181 del 100;
#X obj 466 258 list length;
#X text 405 198 subpatch;
#X obj 618 258 sel 0;
#X obj 638 296 bng 15 250 50 0 empty empty empty 17 7 0 10 -262144
-1 -1;
#X obj 392 359 list;
#X obj 402 318 t l l;
#X obj 232 53 inlet;
#X obj 255 95 t b l;
#X msg 407 443 set \$2;
#X obj 377 577 s \$1-\$2_set;
#X obj 544 417 s \$1-\$2_value;
#X msg 524 374 \$2;
#X connect 0 0 2 0;
#X connect 1 0 13 0;
#X connect 2 0 1 0;
#X connect 3 0 4 0;
#X connect 5 0 2 0;
#X connect 6 0 7 0;
#X connect 7 0 5 0;
#X connect 8 0 10 0;
#X connect 10 1 11 0;
#X connect 11 0 12 0;
#X connect 12 0 16 0;
#X connect 12 0 19 0;
#X connect 13 0 8 0;
#X connect 13 1 12 1;
#X connect 14 0 15 0;
#X connect 15 0 3 0;
#X connect 15 1 0 0;
#X connect 16 0 17 0;
#X connect 19 0 18 0;
#X restore 106 202 pd read_value;
#X connect 1 0 3 0;
#X connect 1 1 2 0;
