#N canvas 954 32 948 963 12;
#X obj 110 170 tgl 15 0 empty empty scene_1 17 7 0 10 #fcfcfc #000000
#000000 0 1;
#X floatatom 190 170 5 0 0 1 curve \$1-1_\$2_curve_set \$1-1_\$2_curve
0;
#X floatatom 290 170 5 0 0 1 scale \$1-1_\$2_scale_set \$1-1_\$2_scale
0;
#X floatatom 390 170 5 0 0 1 shift \$1-1_\$2_shift_set \$1-1_\$2_shift
0;
#X obj 110 200 tgl 15 0 empty empty scene_2 17 7 0 10 #fcfcfc #000000
#000000 0 1;
#X floatatom 190 200 5 0 0 1 curve \$1-2_\$2_curve_set \$1-2_\$2_curve
0;
#X floatatom 290 200 5 0 0 1 scale \$1-2_\$2_scale_set \$1-2_\$2_scale
0;
#X floatatom 390 200 5 0 0 1 shift \$1-2_\$2_shift_set \$1-2_\$2_shift
0;
#X obj 110 230 tgl 15 0 empty empty scene_3 17 7 0 10 #fcfcfc #000000
#000000 0 1;
#X floatatom 190 230 5 0 0 1 curve \$1-3_\$2_curve_set \$1-3_\$2_curve
0;
#X floatatom 290 230 5 0 0 1 scale \$1-3_\$2_scale_set \$1-3_\$2_scale
0;
#X floatatom 390 230 5 0 0 1 shift \$1-3_\$2_shift_set \$1-3_\$2_shift
0;
#X obj 110 260 tgl 15 0 empty empty scene_4 17 7 0 10 #fcfcfc #000000
#000000 0 1;
#X floatatom 190 260 5 0 0 1 curve \$1-4_\$2_curve_set \$1-4_\$2_curve
0;
#X floatatom 290 260 5 0 0 1 scale \$1-4_\$2_scale_set \$1-4_\$2_scale
0;
#X floatatom 390 260 5 0 0 1 shift \$1-4_\$2_shift_set \$1-4_\$2_shift
0;
#X obj 114 300 hsl 128 15 0 127 0 0 empty empty empty -2 -8 0 10 #fcfcfc
#000000 #000000 0 1;
#X symbolatom 110 110 10 0 0 0 - - - 0;
#X obj 114 46 loadbang;
#X obj 110 74 symbol \$1;
#X symbolatom 190 110 10 0 0 0 - - - 0;
#X obj 195 46 loadbang;
#X obj 191 74 symbol \$2;
#X obj 702 67 retain_float \$1 1_\$2_curve;
#X obj 702 97 retain_float \$1 2_\$2_curve;
#X obj 702 127 retain_float \$1 3_\$2_curve;
#X obj 702 157 retain_float \$1 4_\$2_curve;
#X obj 702 197 retain_float \$1 1_\$2_scale;
#X obj 702 227 retain_float \$1 2_\$2_scale;
#X obj 702 257 retain_float \$1 3_\$2_scale;
#X obj 702 287 retain_float \$1 4_\$2_scale;
#X obj 702 327 retain_float \$1 1_\$2_shift;
#X obj 702 357 retain_float \$1 2_\$2_shift;
#X obj 702 387 retain_float \$1 3_\$2_shift;
#X obj 702 417 retain_float \$1 4_\$2_shift;
#X obj 340 686 + 1;
#X obj 342 722 / 2;
#X obj 346 764 * 127;
#X obj 330 497 *;
#X obj 340 467 t b f;
#X obj 330 587 +;
#X obj 340 557 t b f;
#X obj 330 617 clip -1 1;
#X floatatom 337 650 5 0 0 0 - - - 0;
#X obj 330 375 pull_value \$1 \$2_curve;
#X obj 331 407 select_curve \$1;
#X obj 340 437 pull_value \$1 \$2_scale;
#X obj 340 527 pull_value \$1 \$2_shift;
#X obj 424 697 s \$1-\$2_voltage;
#X obj 372 871 s \$1-\$2_signal;
#X obj 44 358 r \$1-\$2_signal;
#X obj 505 55 r scene;
#X obj 539 107 == 1;
#X obj 541 176 == 2;
#X obj 539 211 == 3;
#X obj 541 280 == 4;
#X connect 18 0 19 0;
#X connect 19 0 17 0;
#X connect 21 0 22 0;
#X connect 22 0 20 0;
#X connect 35 0 36 0;
#X connect 36 0 37 0;
#X connect 37 0 49 0;
#X connect 38 0 40 0;
#X connect 39 0 38 0;
#X connect 39 1 38 1;
#X connect 40 0 42 0;
#X connect 41 0 40 0;
#X connect 41 1 40 1;
#X connect 42 0 43 0;
#X connect 43 0 35 0;
#X connect 43 0 48 0;
#X connect 44 0 45 0;
#X connect 45 0 38 0;
#X connect 46 0 39 0;
#X connect 47 0 41 0;
#X connect 50 0 16 0;
#X connect 51 0 52 0;
#X connect 51 0 53 0;
#X connect 51 0 54 0;
#X connect 51 0 55 0;
#X connect 52 0 0 0;
#X connect 53 0 4 0;
#X connect 54 0 8 0;
#X connect 55 0 12 0;
#X coords 0 -1 1 1 400 240 2 100 100;
