#N canvas 964 629 948 443 12;
#X obj 146 138 tgl 15 0 empty empty empty 17 7 0 10 -262144 -1 -1 0
1;
#X floatatom 197 136 5 0 0 0 - - -;
#X floatatom 269 139 5 0 0 0 - - -;
#X floatatom 346 134 5 0 0 0 - - -;
#X obj 142 183 tgl 15 0 empty empty empty 17 7 0 10 -262144 -1 -1 0
1;
#X floatatom 193 181 5 0 0 0 - - -;
#X floatatom 266 182 5 0 0 0 - - -;
#X floatatom 346 180 5 0 0 0 - - -;
#X obj 144 241 tgl 15 0 empty empty empty 17 7 0 10 -262144 -1 -1 0
1;
#X floatatom 195 239 5 0 0 0 - - -;
#X floatatom 267 242 5 0 0 0 - - -;
#X floatatom 344 237 5 0 0 0 - - -;
#X obj 140 286 tgl 15 0 empty empty empty 17 7 0 10 -262144 -1 -1 0
1;
#X floatatom 191 284 5 0 0 0 - - -;
#X floatatom 264 285 5 0 0 0 - - -;
#X floatatom 344 283 5 0 0 0 - - -;
#X obj 169 371 hsl 128 15 0 127 0 0 empty empty empty -2 -8 0 10 -262144
-1 -1 0 1;
#X symbolatom 413 408 10 0 0 0 - - -;
#X obj 576 268 loadbang;
#X obj 572 296 symbol \$1;
#X symbolatom 415 445 10 0 0 0 - - -;
#X obj 605 382 loadbang;
#X obj 601 410 symbol \$2;
#X connect 18 0 19 0;
#X connect 19 0 17 0;
#X connect 21 0 22 0;
#X connect 22 0 20 0;
#X coords 0 -1 1 1 400 400 2 100 100;
