#N canvas 0 101 1920 979 12;
#X obj 172 337 pack f s;
#X msg 172 367 list \$1 \$2;
#X obj 222 607 route -1;
#X obj 222 577 change;
#X obj 232 517 loadbang;
#X msg 232 547 9999;
#X msg 222 667 9999;
#X msg 212 427 list \$2 \$1;
#X obj 172 277 t f b;
#X msg 222 457 symbol \$2;
#X msg 202 727 symbol \$2;
#X obj 172 397 t b l l l;
#X obj 173 30 loadbang;
#X obj 173 60 del 100;
#X obj 222 637 t b;
#X obj 272 667 t f;
#X msg 202 817 \$2;
#X msg 223 176 set \$2;
#X obj 192 877 t b;
#X obj 202 787 text get \$1-data;
#X obj 202 757 text search \$1-data;
#X obj 212 697 text set \$1-data;
#X obj 222 487 text search \$1-data;
#X obj 173 120 text search \$1-data;
#X obj 173 150 text get \$1-data;
#X obj 192 907 s \$1-data_save;
#X obj 313 523 loadbang;
#X obj 325 573 del 100;
#X obj 173 90 symbol \$1-\$2_trigger;
#X obj 173 210 s \$1-\$2_trigger_set;
#X obj 172 247 r \$1-\$2_trigger;
#X obj 182 307 symbol \$1-\$2_trigger;
#X obj 323 645 symbol \$1-\$2_trigger;
#X obj 202 847 s \$1-\$2_trigger_internal;
#X obj 559 344 pack f s;
#X msg 559 374 list \$1 \$2;
#X obj 609 614 route -1;
#X obj 609 584 change;
#X obj 619 524 loadbang;
#X msg 619 554 9999;
#X msg 609 674 9999;
#X msg 599 434 list \$2 \$1;
#X obj 559 284 t f b;
#X msg 609 464 symbol \$2;
#X msg 589 734 symbol \$2;
#X obj 559 404 t b l l l;
#X obj 560 37 loadbang;
#X obj 560 67 del 100;
#X obj 609 644 t b;
#X obj 659 674 t f;
#X msg 589 824 \$2;
#X msg 610 183 set \$2;
#X obj 579 884 t b;
#X obj 589 794 text get \$1-data;
#X obj 589 764 text search \$1-data;
#X obj 599 704 text set \$1-data;
#X obj 609 494 text search \$1-data;
#X obj 560 127 text search \$1-data;
#X obj 560 157 text get \$1-data;
#X obj 579 914 s \$1-data_save;
#X obj 700 530 loadbang;
#X obj 712 580 del 100;
#X obj 560 97 symbol \$1-\$2_pitch;
#X obj 560 217 s \$1-\$2_pitch_set;
#X obj 559 254 r \$1-\$2_pitch;
#X obj 569 314 symbol \$1-\$2_pitch;
#X obj 710 652 symbol \$1-\$2_pitch;
#X obj 589 854 s \$1-\$2_pitch_internal;
#X connect 0 0 1 0;
#X connect 1 0 11 0;
#X connect 2 0 14 0;
#X connect 2 1 15 0;
#X connect 3 0 2 0;
#X connect 4 0 5 0;
#X connect 5 0 3 0;
#X connect 6 0 21 1;
#X connect 7 0 21 0;
#X connect 8 0 0 0;
#X connect 8 1 31 0;
#X connect 9 0 22 0;
#X connect 10 0 20 0;
#X connect 11 0 18 0;
#X connect 11 1 10 0;
#X connect 11 2 7 0;
#X connect 11 3 9 0;
#X connect 12 0 13 0;
#X connect 13 0 28 0;
#X connect 14 0 6 0;
#X connect 15 0 21 1;
#X connect 16 0 33 0;
#X connect 17 0 29 0;
#X connect 18 0 25 0;
#X connect 19 0 16 0;
#X connect 20 0 19 0;
#X connect 22 0 3 0;
#X connect 23 0 24 0;
#X connect 24 0 17 0;
#X connect 26 0 27 0;
#X connect 27 0 32 0;
#X connect 28 0 23 0;
#X connect 30 0 8 0;
#X connect 31 0 0 1;
#X connect 32 0 20 0;
#X connect 34 0 35 0;
#X connect 35 0 45 0;
#X connect 36 0 48 0;
#X connect 36 1 49 0;
#X connect 37 0 36 0;
#X connect 38 0 39 0;
#X connect 39 0 37 0;
#X connect 40 0 55 1;
#X connect 41 0 55 0;
#X connect 42 0 34 0;
#X connect 42 1 65 0;
#X connect 43 0 56 0;
#X connect 44 0 54 0;
#X connect 45 0 52 0;
#X connect 45 1 44 0;
#X connect 45 2 41 0;
#X connect 45 3 43 0;
#X connect 46 0 47 0;
#X connect 47 0 62 0;
#X connect 48 0 40 0;
#X connect 49 0 55 1;
#X connect 50 0 67 0;
#X connect 51 0 63 0;
#X connect 52 0 59 0;
#X connect 53 0 50 0;
#X connect 54 0 53 0;
#X connect 56 0 37 0;
#X connect 57 0 58 0;
#X connect 58 0 51 0;
#X connect 60 0 61 0;
#X connect 61 0 66 0;
#X connect 62 0 57 0;
#X connect 64 0 42 0;
#X connect 65 0 34 1;
#X connect 66 0 54 0;
