#N canvas 964 109 948 963 12;
#N canvas 8 629 948 443 spine 0;
#X obj 80 28 loadbang;
#X obj 174 262 + 1;
#X msg 69 278 94417;
#X msg 174 291 set \$1;
#X obj 69 142 t b b;
#X msg 166 194 set 0;
#X obj 69 317 s coeur;
#X obj 69 195 metro 2;
#X obj 166 147 / 1000;
#X text 255 109 this is the desired loop length (@1);
#X obj 166 109 r interval;
#X obj 397 176 r interval;
#X msg 403 210 set \$1;
#X msg 408 238 3500;
#X obj 402 291 s interval_save;
#X obj 478 214 loadbang;
#X text 91 54 maybe you want to add a delay here to let everything
load?;
#X obj 73 94 del 500;
#X connect 0 0 17 0;
#X connect 1 0 3 0;
#X connect 2 0 1 0;
#X connect 2 0 6 0;
#X connect 3 0 2 0;
#X connect 4 0 7 0;
#X connect 4 1 5 0;
#X connect 5 0 2 0;
#X connect 7 0 2 0;
#X connect 8 0 7 1;
#X connect 10 0 8 0;
#X connect 11 0 12 0;
#X connect 12 0 13 0;
#X connect 13 0 14 0;
#X connect 15 0 13 0;
#X connect 17 0 4 0;
#X restore 33 37 pd spine;
#X obj 33 127 abs/layer sd_kick;
#X obj 33 157 abs/layer sd_snare;
#X floatatom 33 67 5 0 0 0 - interval_save interval;
#N canvas 964 629 948 443 scene 0;
#X obj 418 207 tgl 15 0 empty empty empty 17 7 0 10 -262144 -1 -1 0
1;
#X obj 418 133 loadbang;
#X msg 416 170 0;
#X obj 264 240 spigot;
#X obj 225 36 key;
#X msg 247 163 1;
#X obj 235 106 sel 49 50 51 52;
#X msg 287 147 2;
#X msg 320 180 3;
#X msg 339 150 4;
#X obj 272 486 s scene;
#X obj 303 283 loadbang;
#X msg 295 410 1;
#X obj 336 347 del 50;
#X connect 0 0 3 1;
#X connect 1 0 2 0;
#X connect 2 0 0 0;
#X connect 3 0 10 0;
#X connect 4 0 6 0;
#X connect 5 0 3 0;
#X connect 6 0 5 0;
#X connect 6 1 7 0;
#X connect 6 2 8 0;
#X connect 6 3 9 0;
#X connect 7 0 3 0;
#X connect 8 0 3 0;
#X connect 9 0 3 0;
#X connect 11 0 13 0;
#X connect 12 0 10 0;
#X connect 13 0 12 0;
#X restore 104 37 pd scene;
#X floatatom 103 67 5 0 0 0 - scene scene_junk;
#X obj 305 51 loadbang;
#X obj 328 132 s pd;
#X msg 314 96 dsp 1;
#X connect 6 0 8 0;
#X connect 8 0 7 0;
