#N canvas 964 109 948 963 12;
#N canvas 964 629 948 443 spine 0;
#X obj 80 28 loadbang;
#X obj 174 262 + 1;
#X msg 69 278 2280;
#X msg 174 291 set \$1;
#X obj 69 142 t b b;
#X msg 166 194 set 0;
#X obj 69 317 s coeur;
#X obj 69 195 metro 2;
#X obj 166 147 / 1000;
#X text 255 109 this is the desired loop length (@1);
#X obj 166 109 r interval;
#X obj 397 176 r interval;
#X msg 403 210 set \$1;
#X msg 408 238 3500;
#X obj 402 291 s interval_save;
#X obj 478 214 loadbang;
#X text 91 54 maybe you want to add a delay here to let everything
load?;
#X obj 73 94 del 500;
#X msg 621 104 \; pd dsp 1;
#X obj 620 66 loadbang;
#X obj 706 52 bng 15 250 50 0 empty empty empty 17 7 0 10 -262144 -1
-1;
#X connect 1 0 3 0;
#X connect 2 0 1 0;
#X connect 2 0 6 0;
#X connect 3 0 2 0;
#X connect 4 0 7 0;
#X connect 4 1 5 0;
#X connect 5 0 2 0;
#X connect 7 0 2 0;
#X connect 8 0 7 1;
#X connect 10 0 8 0;
#X connect 11 0 12 0;
#X connect 12 0 13 0;
#X connect 13 0 14 0;
#X connect 15 0 13 0;
#X connect 17 0 4 0;
#X connect 19 0 18 0;
#X connect 20 0 18 0;
#X restore 33 37 pd spine;
#X obj 33 157 abs/layer sd_snare;
#X floatatom 33 67 5 0 0 0 - interval_save interval;
#N canvas 1220 109 692 963 scene 0;
#X obj 418 207 tgl 15 0 empty empty empty 17 7 0 10 -262144 -1 -1 0
1;
#X obj 418 133 loadbang;
#X msg 416 170 0;
#X obj 264 240 spigot;
#X obj 225 36 key;
#X msg 247 163 1;
#X obj 235 106 sel 49 50 51 52;
#X msg 287 147 2;
#X msg 320 180 3;
#X msg 339 150 4;
#X obj 272 486 s scene;
#X obj 303 283 loadbang;
#X msg 295 410 1;
#X obj 336 347 del 50;
#X msg 529 179 poll 2;
#X msg 597 188 open 28;
#X obj 525 225 hid 0;
#X obj 581 141 t b b;
#X obj 578 107 loadbang;
#X obj 523 312 tgl 15 0 empty empty empty 17 7 0 10 -262144 -1 -1 0
1;
#X obj 525 255 route key;
#X obj 573 313 tgl 15 0 empty empty empty 17 7 0 10 -262144 -1 -1 0
1;
#X obj 628 310 tgl 15 0 empty empty empty 17 7 0 10 -262144 -1 -1 0
1;
#X obj 678 311 tgl 15 0 empty empty empty 17 7 0 10 -262144 -1 -1 0
1;
#X obj 522 282 route btn_0 btn_1 btn_2 btn_3;
#X obj 521 343 sel 1;
#X obj 585 339 sel 1;
#X obj 642 337 sel 1;
#X obj 706 333 sel 1;
#X msg 515 374 1;
#X msg 575 376 2;
#X msg 634 375 3;
#X msg 697 369 4;
#X obj 515 431 s scene;
#X obj 81 639 != 1;
#X msg 78 752 set \$1;
#X obj 76 672 - 1;
#X obj 92 714 abs;
#X obj 79 787 s scene_one_tgl;
#X obj 185 536 r scene;
#X msg 227 761 set \$1;
#X obj 225 681 - 1;
#X obj 241 723 abs;
#X obj 230 648 != 2;
#X obj 228 796 s scene_two_tgl;
#X msg 356 767 set \$1;
#X obj 354 687 - 1;
#X obj 370 729 abs;
#X msg 505 776 set \$1;
#X obj 503 696 - 1;
#X obj 519 738 abs;
#X obj 359 654 != 3;
#X obj 508 663 != 4;
#X obj 357 802 s scene_three_tgl;
#X obj 506 811 s scene_four_tgl;
#X connect 0 0 3 1;
#X connect 1 0 2 0;
#X connect 2 0 0 0;
#X connect 3 0 10 0;
#X connect 4 0 6 0;
#X connect 5 0 3 0;
#X connect 6 0 5 0;
#X connect 6 1 7 0;
#X connect 6 2 8 0;
#X connect 6 3 9 0;
#X connect 7 0 3 0;
#X connect 8 0 3 0;
#X connect 9 0 3 0;
#X connect 11 0 13 0;
#X connect 12 0 10 0;
#X connect 13 0 12 0;
#X connect 14 0 16 0;
#X connect 15 0 16 0;
#X connect 16 0 20 0;
#X connect 17 0 14 0;
#X connect 17 1 15 0;
#X connect 18 0 17 0;
#X connect 19 0 25 0;
#X connect 20 0 24 0;
#X connect 21 0 26 0;
#X connect 22 0 27 0;
#X connect 23 0 28 0;
#X connect 24 0 19 0;
#X connect 24 1 21 0;
#X connect 24 2 22 0;
#X connect 24 3 23 0;
#X connect 25 0 29 0;
#X connect 26 0 30 0;
#X connect 27 0 31 0;
#X connect 28 0 32 0;
#X connect 29 0 33 0;
#X connect 30 0 33 0;
#X connect 31 0 33 0;
#X connect 32 0 33 0;
#X connect 34 0 36 0;
#X connect 35 0 38 0;
#X connect 36 0 37 0;
#X connect 37 0 35 0;
#X connect 39 0 34 0;
#X connect 39 0 43 0;
#X connect 39 0 51 0;
#X connect 39 0 52 0;
#X connect 40 0 44 0;
#X connect 41 0 42 0;
#X connect 42 0 40 0;
#X connect 43 0 41 0;
#X connect 45 0 53 0;
#X connect 46 0 47 0;
#X connect 47 0 45 0;
#X connect 48 0 54 0;
#X connect 49 0 50 0;
#X connect 50 0 48 0;
#X connect 51 0 46 0;
#X connect 52 0 49 0;
#X restore 104 38 pd scene;
#X floatatom 103 67 5 0 0 0 - scene scene_junk;
#X obj 33 127 abs/layer sd_kick;
