#N canvas 964 109 948 963 12;
#N canvas 8 629 948 443 spine 0;
#X obj 80 28 loadbang;
#X obj 174 262 + 1;
#X msg 69 278 55841;
#X msg 174 291 set \$1;
#X obj 69 142 t b b;
#X msg 166 194 set 0;
#X obj 69 317 s coeur;
#X obj 69 195 metro 2;
#X obj 166 147 / 1000;
#X text 255 109 this is the desired loop length (@1);
#X obj 166 109 r interval;
#X obj 397 176 r interval;
#X msg 403 210 set \$1;
#X msg 408 238 3500;
#X obj 402 291 s interval_save;
#X obj 478 214 loadbang;
#X text 91 54 maybe you want to add a delay here to let everything
load?;
#X obj 73 94 del 500;
#X connect 0 0 17 0;
#X connect 1 0 3 0;
#X connect 2 0 1 0;
#X connect 2 0 6 0;
#X connect 3 0 2 0;
#X connect 4 0 7 0;
#X connect 4 1 5 0;
#X connect 5 0 2 0;
#X connect 7 0 2 0;
#X connect 8 0 7 1;
#X connect 10 0 8 0;
#X connect 11 0 12 0;
#X connect 12 0 13 0;
#X connect 13 0 14 0;
#X connect 15 0 13 0;
#X connect 17 0 4 0;
#X restore 33 37 pd spine;
#X obj 33 127 abs/layer sd_kick;
#X obj 33 157 abs/layer sd_snare;
#X floatatom 33 67 5 0 0 0 - interval_save interval;
#N canvas 177 208 713 627 scene 0;
#X obj 418 207 tgl 15 0 empty empty empty 17 7 0 10 -262144 -1 -1 0
1;
#X obj 418 133 loadbang;
#X msg 416 170 0;
#X obj 264 240 spigot;
#X obj 225 36 key;
#X msg 247 163 1;
#X obj 235 106 sel 49 50 51 52;
#X msg 287 147 2;
#X msg 320 180 3;
#X msg 339 150 4;
#X obj 272 486 s scene;
#X obj 303 283 loadbang;
#X msg 295 410 1;
#X obj 336 347 del 50;
#X connect 0 0 3 1;
#X connect 1 0 2 0;
#X connect 2 0 0 0;
#X connect 3 0 10 0;
#X connect 4 0 6 0;
#X connect 5 0 3 0;
#X connect 6 0 5 0;
#X connect 6 1 7 0;
#X connect 6 2 8 0;
#X connect 6 3 9 0;
#X connect 7 0 3 0;
#X connect 8 0 3 0;
#X connect 9 0 3 0;
#X connect 11 0 13 0;
#X connect 12 0 10 0;
#X connect 13 0 12 0;
#X restore 103 37 pd scene;
#X floatatom 103 67 5 0 0 0 - scene scene_junk;
#X obj 82 607 dac~;
#X obj 128 290 bng 15 250 50 0 empty empty empty 17 7 0 10 -262144
-1 -1;
#X obj 123 265 r sd_kick-hit;
#X obj 340 288 bng 15 250 50 0 empty empty empty 17 7 0 10 -262144
-1 -1;
#X obj 333 256 r sd_snare-hit;
#X obj 288 651 dac~;
#X obj 343 320 t b b;
#X obj 289 226 noise~;
#X obj 332 452 line~;
#X obj 294 519 *~;
#X obj 320 349 del 10;
#X obj 292 548 *~ 0.5;
#X obj 118 321 t b b;
#X obj 52 243 noise~;
#X obj 105 438 line~;
#X obj 88 470 *~;
#X obj 113 368 del 10;
#X msg 109 399 0 200;
#X obj 84 568 hip~ 20;
#X obj 85 501 *~ 2;
#X obj 288 615 lop~ 4000;
#X obj 293 581 hip~ 2000;
#X msg 172 400 1 2;
#X obj 305 51 loadbang;
#X obj 328 132 s pd;
#X msg 314 96 dsp 1;
#X msg 403 385 1 4;
#X msg 285 379 0 250;
#X obj 86 534 lop~ 100;
#X connect 7 0 18 0;
#X connect 8 0 7 0;
#X connect 9 0 12 0;
#X connect 10 0 9 0;
#X connect 12 0 16 0;
#X connect 12 1 32 0;
#X connect 13 0 15 0;
#X connect 14 0 15 1;
#X connect 15 0 17 0;
#X connect 16 0 33 0;
#X connect 17 0 27 0;
#X connect 18 0 22 0;
#X connect 18 1 28 0;
#X connect 19 0 21 0;
#X connect 20 0 21 1;
#X connect 21 0 25 0;
#X connect 22 0 23 0;
#X connect 23 0 20 0;
#X connect 24 0 6 1;
#X connect 24 0 6 0;
#X connect 25 0 34 0;
#X connect 26 0 11 1;
#X connect 26 0 11 0;
#X connect 27 0 26 0;
#X connect 28 0 20 0;
#X connect 29 0 31 0;
#X connect 31 0 30 0;
#X connect 32 0 14 0;
#X connect 33 0 14 0;
#X connect 34 0 24 0;
